<?xml version="1.0" encoding="UTF-8"?>
<svg width="264px" height="260px" viewBox="0 0 264 260" version="1.1" xmlns="http://www.w3.org/2000/svg" xmlns:xlink="http://www.w3.org/1999/xlink">
    <title>Group 12</title>
    <defs>
        <polygon id="path-1" points="0 0 264 0 264 260 0 260"></polygon>
    </defs>
    <g id="Prototype" stroke="none" stroke-width="1" fill="none" fill-rule="evenodd">
        <g id="Desktop-HD-Copy-7" transform="translate(-929.000000, -2428.000000)">
            <g id="Group-17" transform="translate(19.000000, 2347.000000)">
                <g id="Group-12" transform="translate(910.000000, 81.000000)">
                    <mask id="mask-2" fill="white">
                        <use xlink:href="#path-1"></use>
                    </mask>
                    <g id="Clip-11"></g>
                    <path d="M200.793913,154.07549 C202.557857,152.960098 202.882357,151.048589 203.219336,149.273914 C206.888673,129.839555 210.761861,110.446661 213.657392,90.8588841 C215.733354,76.8314817 219.04907,63.0031084 222.9597,49.353032 C225.426726,40.7408786 228.126725,32.1867754 230.93073,23.6824295 C233.156462,16.9195879 236.235043,10.51334 240.208077,4.57563963 C241.031806,3.34414731 242.034425,2.22460884 243.012083,1.10092393 C243.702683,0.313100565 246.398522,-0.321304568 247.238892,0.176268085 C251.087119,2.46924873 255.247364,4.40563564 258.625483,7.25423908 C262.47787,10.5050471 264.50391,15.2610124 263.892354,20.3072283 C262.769088,29.5537868 262.656761,38.8625419 260.634882,48.0759288 C257.115314,64.1267933 253.371093,80.1071684 249.385579,96.0419326 C246.577413,107.262196 244.426566,118.65661 242.221636,130.013705 C239.513316,143.941593 236.988048,157.906799 234.508541,171.876151 C233.593287,177.013589 233.198064,182.246395 232.262009,187.379686 C230.389898,197.667001 228.638435,207.991633 226.213012,218.154555 C223.770948,228.379673 222.2691,238.666987 221.919639,249.149184 C221.882197,250.268723 221.75739,251.384115 221.699146,252.503653 C221.578499,254.908588 220.184817,256.645946 218.666327,258.321107 C217.605465,259.48211 216.274186,260.249201 214.709934,259.925779 C212.147223,259.399181 209.617794,258.702579 207.105006,257.976953 C203.739367,257.002539 201.085131,255.041274 199.237982,252.030959 C198.264484,250.438727 197.186981,248.904544 196.201003,247.316458 C194.79068,245.04421 193.035056,243.17002 190.513947,242.096092 C189.827507,241.801695 189.19931,241.378758 188.533671,241.042897 C184.997462,239.259928 182.671885,236.419617 181.465414,232.716848 C179.385291,226.327185 177.226124,219.958255 175.416417,213.489811 C168.581134,189.042408 162.111953,164.487197 155.014574,140.11443 C150.950015,126.140932 145.966041,112.432805 141.323207,98.6293104 C140.732452,96.8878061 139.796397,95.2375235 138.852021,93.6411445 C138.535843,93.1021075 137.695473,92.5547776 137.113039,92.5796562 C136.534765,92.6003884 135.931529,93.2804044 135.428139,93.7655377 C135.186845,93.9935918 135.082839,94.4289679 135.032916,94.7855616 C133.476984,105.931189 130.01566,116.575097 126.770669,127.310227 C118.229685,155.547475 109.83015,183.834481 103.023989,212.556862 C102.678688,214.012262 102.35835,215.471809 101.983928,216.914769 C101.222603,219.854594 100.011971,222.429533 97.4991831,224.448849 C95.7893223,225.817173 94.4746848,227.757707 93.2640534,229.619458 C92.714901,230.469478 92.4860875,231.82951 92.714901,232.824655 C93.2224509,234.993242 94.0545,237.095487 94.8532671,239.185292 C96.5173652,243.526613 96.4591218,247.934278 95.5854703,252.404139 C95.1486445,254.643216 92.9811567,256.127641 90.6056566,255.95349 C85.3471066,255.563725 81.0246117,252.934883 78.4202982,248.813323 C75.3833191,243.999307 71.7264635,239.935797 67.7783907,235.959363 C66.5303171,234.702992 65.3904099,232.791483 65.2364808,231.083151 C64.2879449,220.754372 59.3954965,211.81465 55.1853282,202.713217 C46.0660705,183.005193 38.5693085,162.712522 32.15005,142.00106 C26.841577,124.876268 20.7717791,108.004408 14.273476,91.2942602 C10.1922754,80.8037701 7.63372451,69.9110754 4.7673155,59.0930166 C4.16407994,56.8332075 4.36793196,54.5899841 6.06531204,52.802869 C7.79181383,50.9867288 8.04142855,48.7932627 7.75021138,46.5458929 C6.63942589,38.0539863 5.87394075,29.5289082 2.58318672,21.4184739 C0.627871437,16.6003121 -0.503715283,11.4255565 0.220167398,6.06835759 C0.461461625,4.30612111 2.10059827,2.66413135 3.96022792,2.53144531 C8.46993382,2.20802309 12.0269435,3.88318435 14.4024436,7.71864022 C15.3801012,9.29428695 16.0665417,11.0606699 16.7904244,12.781442 C18.9703929,17.960344 21.345893,22.9775349 25.3979719,27.0908022 C26.9247819,28.6415703 27.9690035,30.7438147 28.9549816,32.7341054 C30.6190798,36.076135 32.2374152,39.459629 33.5562129,42.9467841 C38.4320204,55.8753802 43.2121423,68.8371478 47.9714629,81.8113547 C53.1093658,95.8387571 58.1682241,109.895185 63.2853258,123.93088 C65.0783915,128.848556 66.4554327,133.836722 67.5995002,138.965867 C69.3842454,146.960201 72.0468024,154.767945 74.413982,162.625446 C74.5928725,163.222534 75.3957998,163.637177 75.9324715,164.109872 C76.6397132,164.731837 77.6756143,164.035236 78.3454138,162.488614 C78.9403288,161.120289 79.63925,159.776843 80.0885565,158.362907 C81.2284638,154.805263 82.2893263,151.226886 83.3169069,147.631924 C86.287322,137.224362 89.2078142,126.796069 92.1823896,116.392654 C95.7810018,103.804066 100.823219,91.7213434 105.278842,79.4354453 C108.844172,69.6083854 112.596713,59.8435221 116.540626,50.1615875 C119.357112,43.2536205 122.54386,36.4907789 125.726447,29.7403766 C127.814891,25.3078335 130.914273,21.5428671 134.346476,18.0681514 C135.469742,16.9361736 137.029834,16.6251907 138.510881,17.1020312 C140.278985,17.6742397 142.042929,18.3791343 143.636303,19.3162295 C147.184993,21.4018882 148.782527,24.6070854 148.399784,28.7244991 C148.266656,30.2089241 148.091926,31.6974957 147.792388,33.1570421 C146.993621,37.0837196 147.98376,40.442335 150.438304,43.6143607 C152.709798,46.5583322 154.652633,49.7635294 156.686993,52.8899442 C157.905945,54.7641346 159.149858,56.6424713 160.164958,58.6286155 C166.109948,70.2718156 172.129823,81.8776977 177.829359,93.6411445 C180.762332,99.6825058 183.275121,105.947775 185.629819,112.237922 C190.343377,124.822364 195.30655,137.33217 198.439215,150.447356 C198.776195,151.857145 199.2047,153.378888 200.793913,154.07549" id="Fill-10" fill="#231F20" mask="url(#mask-2)"></path>
                </g>
            </g>
        </g>
    </g>
</svg>