<?xml version="1.0" encoding="UTF-8"?>
<svg width="166px" height="201px" viewBox="0 0 166 201" version="1.1" xmlns="http://www.w3.org/2000/svg" xmlns:xlink="http://www.w3.org/1999/xlink">
    <title>Fill 6</title>
    <g id="Prototype" stroke="none" stroke-width="1" fill="none" fill-rule="evenodd">
        <g id="Desktop-HD-Copy-7" transform="translate(-728.000000, -2436.000000)" fill="#231F20">
            <g id="Group-17" transform="translate(19.000000, 2347.000000)">
                <path d="M861.985888,115.921608 C862.891004,115.494878 863.974652,115.252228 863.999564,114.925906 C864.169792,112.834095 862.122901,110.913812 859.922389,110.964016 C859.68573,110.968199 859.366033,111.424214 859.270539,111.729618 C859.166741,112.047574 859.158438,112.537057 859.341122,112.775524 C860.196415,113.88 861.134746,114.921722 861.985888,115.921608 M849.542616,130.564285 C848.870007,128.154518 848.130967,124.845273 847.022408,121.669904 C844.689035,114.971925 840.038897,111.001668 832.851942,110.817589 C826.134154,110.641877 819.408061,110.821772 812.681968,110.909628 C806.541295,110.993301 800.861484,112.892665 795.746332,116.176809 C791.984702,118.590758 788.401605,121.343582 784.97628,124.234465 C779.520671,128.840632 775.269117,134.660051 770.299281,139.734784 C764.146152,146.014401 759.861382,153.436146 755.663802,160.987584 C755.306738,161.627678 755.215396,162.414199 754.978737,163.125415 C754.546939,164.426521 755.863094,166.43466 757.216616,166.330069 C759.425432,166.162724 761.688222,166.087419 763.818152,165.539365 C773.230529,163.117047 782.572324,160.414428 792.00131,158.059048 C800.699559,155.883565 809.476695,154.005119 818.220615,152.017898 C820.404519,151.520047 822.596727,151.013829 824.809695,150.666588 C838.43626,148.524574 835.463493,148.629164 845.282758,140.425082 C845.851569,139.948149 846.383014,139.400094 846.848028,138.818571 C848.554462,136.684924 849.227071,134.166383 849.542616,130.564285 M824.834606,89 C830.070163,89.9622331 836.559597,88.8326551 842.662903,91.1796671 C843.688425,91.5771112 844.846807,91.777925 845.951215,91.7946595 C853.491082,91.9118009 859.498894,95.8444056 865.236832,100.032211 C869.521602,103.16156 872.099938,107.939257 874.337817,112.700219 C875.085161,114.298362 875.022882,116.377622 874.973059,118.226783 C874.935692,119.695235 874.611843,121.280827 873.968297,122.590301 C871.84252,126.903615 871.759481,131.208562 873.179434,135.739425 C874.092854,138.647042 873.976601,141.671801 873.362118,144.679825 C872.838978,147.256936 872.564952,149.892618 871.933862,152.440444 C871.489607,154.235218 870.804542,156.021624 869.911882,157.632319 C868.824082,159.594438 867.36261,161.339008 866.141949,163.234189 C861.769988,170.007473 855.284707,173.438043 847.661802,174.801904 C839.208515,176.316375 830.705405,177.579829 822.202296,178.818181 C819.632264,179.190523 816.979194,179.374603 814.396707,179.194707 C809.484999,178.843283 804.693696,179.44154 799.93976,180.462344 C791.540448,182.265485 783.14944,183.905465 774.567444,184.842596 C766.429702,185.729524 758.424822,187.83807 750.37427,189.507335 C747.472086,190.109777 745.940031,192.28526 745.558056,195.084103 C745.205144,197.677949 744.985092,200.3471 745.188536,202.940945 C745.832082,211.211966 747.239579,219.370029 749.319685,227.402583 C751.885565,237.326134 757.374389,244.89849 766.209651,250.312097 C775.057369,255.738255 784.365949,258.754646 794.745722,259.135356 C805.324786,259.528616 815.609064,258.164756 825.777089,255.499788 C832.366169,253.771953 839.025831,253.29502 845.760227,254.190315 C846.785749,254.324191 848.438209,255.031223 848.579374,255.725704 C849.646414,261.08074 853.744348,264.862735 855.525517,269.807776 C855.654226,270.1592 855.68329,270.53991 855.799543,270.895517 C856.310228,272.506212 855.209972,275.028936 853.628095,275.602092 C851.880141,276.238003 850.111428,276.840444 848.305348,277.288092 C845.041947,278.095531 841.745331,278.760727 838.469475,279.513779 C835.430278,280.212444 832.84779,281.46753 831.701864,284.734939 C830.875634,287.090318 828.832894,288.052551 826.619927,288.730298 C821.114496,290.420481 815.484507,290.240586 809.962468,289.253251 C804.037694,288.194794 798.104616,288.04 792.138323,287.730412 C784.320278,287.328785 776.510537,286.437673 768.742316,285.416869 C766.234563,285.086363 763.735113,283.910765 761.455715,282.689148 C758.831709,281.287634 756.377931,279.513779 753.994735,277.706454 C749.813763,274.543636 745.798867,271.159086 741.622046,267.992084 C731.21321,260.105956 723.565394,249.964857 718.350596,238.091737 C709.340954,217.575255 706.721099,196.196947 711.018325,174.078137 C711.304807,172.601318 711.533162,171.091031 712.047998,169.689518 C717.545126,154.846027 723.478204,140.228451 733.525824,127.74034 C735.875804,124.815988 738.109531,121.795413 740.401385,118.825041 C746.537906,110.867792 754.268761,105.194801 763.913645,102.337387 C776.456563,98.6306979 789.011935,94.965845 801.575612,91.3386447 C803.360933,90.8198756 805.220988,90.4684513 807.068587,90.3094737 C812.648753,89.8283572 818.241375,89.4769329 824.834606,89" id="Fill-6"></path>
            </g>
        </g>
    </g>
</svg>