<?xml version="1.0" encoding="UTF-8"?>
<svg width="135px" height="265px" viewBox="0 0 135 265" version="1.1" xmlns="http://www.w3.org/2000/svg" xmlns:xlink="http://www.w3.org/1999/xlink">
    <title>Fill 8</title>
    <g id="Prototype" stroke="none" stroke-width="1" fill="none" fill-rule="evenodd">
        <g id="Desktop-HD-Copy-7" transform="translate(-613.000000, -2401.000000)" fill="#231F20">
            <g id="Group-17" transform="translate(19.000000, 2347.000000)">
                <path d="M594,80.7047801 C594.427655,79.7741282 594.610343,79.0145828 595.06291,78.4720503 C595.51963,77.9211711 596.179797,77.4579319 596.848268,77.1741456 C609.208753,71.8615006 621.506959,66.4111358 634.735211,63.4772871 C640.929986,62.1000892 647.045873,60.347292 653.145152,58.5736281 C662.906489,55.7441125 672.850514,54.3293547 682.989683,54.0080086 C686.58531,53.8953288 689.641177,54.9678737 692.140678,57.4676965 C694.785498,60.1094124 697.33067,62.863808 699.83017,65.6432437 C702.250783,68.3308661 702.769782,71.5443278 702.49575,75.0958289 C702.267391,78.0171576 700.868169,80.0787811 698.609484,81.5728321 C697.069094,82.5994705 695.316953,83.3256293 693.610483,84.0726548 C688.129852,86.4681444 682.6077,88.7718208 677.135372,91.188177 C674.046289,92.5486816 672.576483,94.9817311 673.09133,98.4372457 C674.033833,104.747316 675.051071,111.057386 676.375557,117.296509 C678.169218,125.768363 679.273649,134.319509 679.908904,142.941603 C680.357319,148.9345 680.88047,154.923224 681.241694,160.920294 C681.486662,165.043541 681.752389,169.187655 681.594613,173.306728 C681.17111,184.566364 680.739303,195.834346 679.908904,207.068942 C679.165697,217.17674 677.720803,227.234457 676.898708,237.338081 C675.918838,249.315529 675.266975,261.318017 674.52792,273.312158 C674.457336,274.409743 674.760432,275.532368 674.914055,276.6383 C675.022007,277.410365 676.562397,278.762523 677.309756,278.729137 C678.792018,278.654017 680.290887,278.67071 681.744085,278.42031 C690.621048,276.922086 699.610115,276.87618 708.557661,276.36286 C710.044075,276.279394 711.551249,276.329474 713.03351,276.48806 C717.766783,277.001379 721.503578,279.292536 724.210678,283.190423 C725.27774,284.722034 726.128899,286.412231 726.996666,288.069042 C728.209048,290.385238 729.645638,292.668048 728.686527,295.497564 C727.602857,298.711025 726.58977,301.96622 723.488231,303.910991 C721.586618,305.108735 719.7805,306.540186 717.741871,307.404065 C710.51325,310.463114 703.288781,313.568069 695.902384,316.180571 C689.894449,318.304795 683.591722,319.081033 677.147828,318.993394 C669.304712,318.88906 661.440835,319.318913 653.635087,318.263061 C643.657846,316.915077 633.693061,315.663079 624.097803,312.153311 C615.328792,308.948196 609.88968,302.830099 606.526565,294.420845 C606.032478,293.198061 607.095388,291.173997 608.502914,290.944464 C611.068847,290.527132 613.643083,290.172399 616.229775,289.892786 C621.785143,289.279307 627.36127,288.795201 632.916638,288.123295 C634.822403,287.893762 636.408465,285.957339 636.267297,284.196195 C635.382922,273.228692 637.330207,262.507415 638.791709,251.723539 C640.257363,240.935489 641.382553,230.101533 642.511896,219.27175 C643.441942,210.307444 644.172693,201.322271 644.969876,192.345445 C645.567763,185.605523 645.650803,178.89064 645.052916,172.10481 C644.388597,164.634555 644.288949,157.097527 644.284797,149.585539 C644.280645,133.78115 642.14652,118.110308 641.482201,102.351826 C641.448985,101.604801 641.291209,100.861949 641.16665,100.119096 C640.643498,97.0308345 638.260254,94.9733844 634.876379,94.7981047 C633.012134,94.7021182 631.135433,94.8064514 629.271187,94.7104648 C623.670148,94.4350253 618.077412,94.1053325 612.480524,93.7881596 C608.615018,93.5669733 605.280967,92.0979623 602.295684,89.6106595 C599.111104,86.9522503 596.453828,83.8514685 594,80.7047801" id="Fill-8"></path>
            </g>
        </g>
    </g>
</svg>