<?xml version="1.0" encoding="UTF-8"?>
<svg width="220px" height="86px" viewBox="0 0 220 86" version="1.1" xmlns="http://www.w3.org/2000/svg" xmlns:xlink="http://www.w3.org/1999/xlink">
    <title>Button</title>
    <defs>
        <polygon id="path-1" points="0 0 30 0 30 30 0 30"></polygon>
        <polygon id="path-3" points="0 0 29 0 29 26 0 26"></polygon>
    </defs>
    <g id="Prototype" stroke="none" stroke-width="1" fill="none" fill-rule="evenodd">
        <g id="Desktop-HD-Copy" transform="translate(-80.000000, -635.000000)">
            <g id="Hero" transform="translate(-28.000000, -50.000000)">
                <g id="Hero-Text" transform="translate(119.000000, 287.000000)">
                    <g id="Group" transform="translate(0.000000, 406.000000)">
                        <path d="M198.969,58.2378023 L194.901,58.1428023 C192.663,58.0918023 190.124,58.0268023 189.258,58.0018023 C187.363,57.9428023 187.256,57.5738023 188.927,56.8548023 C192.764,55.2038023 198.289,51.3418023 198.289,50.3118023 C198.289,50.1398023 198.425,49.9988023 198.59,49.9988023 C198.756,49.9988023 198.908,51.8518023 198.93,54.1188023 L198.969,58.2378023 Z M148.586,57.2898023 C147.453,57.2898023 146.949,56.7158023 147.812,56.4088023 C148.143,56.2908023 148.641,56.0018023 148.918,55.7648023 C149.215,55.5128023 149.605,55.4478023 149.864,55.6068023 C150.632,56.0828023 149.716,57.2898023 148.586,57.2898023 L148.586,57.2898023 Z M-6.285,70.7588023 C-4.883,71.1098023 -1.794,70.7988023 2.179,69.9048023 C5.172,69.2308023 51.42,68.7948023 65.067,69.3118023 C68.803,69.4538023 74.321,69.6448023 77.328,69.7358023 C82.93,69.9098023 83.387,69.9358023 90.7,70.5508023 C93.043,70.7488023 97.592,70.9798023 100.809,71.0718023 C104.025,71.1588023 107.551,71.2858023 108.645,71.3508023 C109.739,71.4148023 115.62,71.6418023 121.715,71.8538023 C127.81,72.0668023 132.88,72.2908023 132.983,72.3488023 C133.085,72.4088023 135.257,72.5578023 137.809,72.6808023 C140.361,72.8038023 143.247,73.1298023 144.224,73.4018023 C145.7,73.8158023 147.798,73.8698023 156.653,73.7228023 C169.227,73.5158023 181.069,73.4978023 181.369,73.6828023 C181.488,73.7558023 184.462,73.8478023 187.981,73.8878023 C196.32,73.9838023 197.44,74.1878023 199.014,75.8898023 C200.155,77.1228023 200.342,77.2058023 201.825,77.1098023 C203.358,77.0118023 203.446,76.9498023 204.313,75.3518023 C204.888,74.2878023 205.219,73.1598023 205.235,72.2028023 C205.247,71.3838023 205.503,69.7428023 205.803,68.5568023 C206.252,66.7848023 206.339,64.7618023 206.297,57.1248023 C206.269,52.0208023 206.155,46.3298023 206.041,44.4758023 C205.845,41.2548023 205.871,41.0568023 206.653,40.0018023 C207.928,38.2738023 208.528,36.4108023 208.154,35.3238023 C207.936,34.6888023 207.954,34.2598023 208.214,33.9468023 C208.421,33.6958023 208.505,33.1418023 208.4,32.7168023 C208.294,32.2888023 208.152,31.4158023 208.08,30.7778023 C207.709,27.4178023 207.221,25.4198023 206.367,23.7698023 C205.979,23.0168023 205.99,22.6398023 206.441,21.1178023 C206.731,20.1428023 207.093,19.0988023 207.248,18.7998023 C207.403,18.5018023 207.445,18.1718023 207.343,18.0698023 C207.24,17.9668023 207.117,17.1678023 207.07,16.2948023 C206.884,12.8688023 206.485,10.3738023 206.042,9.87380233 C205.788,9.58580233 205.58,9.18580233 205.58,8.98580233 C205.58,8.78580233 205.187,8.31180233 204.706,7.93580233 C204.021,7.39480233 203.833,6.96080233 203.833,5.91480233 C203.833,5.18080233 203.704,4.50080233 203.546,4.40380233 C203.389,4.30680233 203.26,3.82380233 203.26,3.33280233 C203.26,2.84080233 202.909,1.76680233 202.481,0.948802326 C202.053,0.131802326 201.302,-1.58319767 200.814,-2.86019767 C199.586,-6.06419767 198.304,-7.84519767 197.273,-7.77619767 C195.678,-7.67019767 193.463,-7.30019767 192.412,-6.96419767 C191.825,-6.77619767 191.196,-6.71519767 191.014,-6.82619767 C190.833,-6.93819767 190.346,-6.80819767 189.931,-6.53819767 C189.199,-6.06419767 185.665,-6.04719767 180.725,-6.49219767 C179.905,-6.56919767 177.094,-6.71019767 174.477,-6.81019767 C171.862,-6.90919767 169.251,-7.10619767 168.678,-7.24719767 C168.104,-7.39119767 165.275,-7.49519767 162.39,-7.48119767 C158.215,-7.46119767 157.083,-7.35919767 156.839,-6.98119767 C156.616,-6.63419767 156.464,-6.61019767 156.284,-6.88719767 C156.021,-7.29219767 153.606,-7.40619767 145.928,-7.37019767 C134.658,-7.32019767 129.474,-7.20719767 128.876,-6.99819767 C128.52,-6.87319767 127.651,-6.90119767 126.944,-7.06019767 C126.064,-7.25819767 124.818,-7.18919767 122.988,-6.84219767 C121.485,-6.55719767 120.156,-6.45819767 119.949,-6.61619767 C119.747,-6.77119767 118.463,-6.84019767 117.096,-6.77019767 C115.729,-6.70019767 113.194,-6.58519767 111.462,-6.51519767 C105.646,-6.27819767 102.899,-6.07919767 102.563,-5.87219767 C102.379,-5.75719767 102.143,-5.80519767 102.037,-5.97519767 C101.933,-6.14519767 101.214,-6.21319767 100.441,-6.12819767 C97.66,-5.82219767 91.743,-5.77119767 90.785,-6.04519767 C90.14,-6.23019767 89.649,-6.19319767 89.342,-5.93919767 C89.086,-5.72719767 87.881,-5.52519767 86.664,-5.49119767 C85.448,-5.45719767 83.412,-5.32219767 82.14,-5.18919767 C79.288,-4.89219767 75.978,-4.77719767 63.078,-4.53019767 C57.519,-4.42419767 49.689,-4.24519767 45.679,-4.13519767 C41.669,-4.02519767 36.971,-3.90019767 35.24,-3.85819767 C33.508,-3.81819767 30.688,-3.68119767 28.972,-3.55819767 C27.256,-3.43419767 24.423,-3.27119767 22.675,-3.19319767 C20.928,-3.11719767 18.043,-2.96319767 16.263,-2.85319767 C11.718,-2.57019767 11.654,-2.60219767 11.886,-5.12119767 C12.34,-10.0341977 10.153,-8.36419767 8.256,-2.34619767 C7.673,-0.497197674 7.574,-0.231197674 6.571,2.17780233 C5.898,3.79480233 5.486,3.93580233 1.769,3.83580233 C-1.084,3.75880233 -2.27,3.13580233 -2.932,1.36680233 C-3.796,-0.942197674 -4.434,0.351802326 -4.69,4.93180233 C-4.807,7.02580233 -5.113,9.83480233 -5.369,11.1738023 C-5.624,12.5098023 -5.807,13.7038023 -5.776,13.8238023 C-5.743,13.9448023 -5.887,14.5648023 -6.095,15.2028023 C-6.303,15.8398023 -6.637,17.1978023 -6.84,18.2178023 C-7.136,19.7198023 -7.378,20.1598023 -8.104,20.5218023 C-8.597,20.7668023 -9.452,21.2918023 -10.001,21.6888023 L-11,22.4078023 L-10.773,26.3438023 C-10.649,28.5088023 -10.365,31.6658023 -10.144,33.3568023 C-9.809,35.9228023 -9.625,36.4978023 -9.04,36.8038023 C-7.956,37.3758023 -7.822,37.7638023 -8.033,39.7258023 C-8.334,42.5038023 -8.419,42.9238023 -8.841,43.7118023 C-9.061,44.1238023 -9.14,44.8948023 -9.021,45.4808023 C-8.128,49.8778023 -7.762,65.5088023 -8.531,66.4338023 C-9.126,67.1528023 -7.399,70.4788023 -6.285,70.7588023 L-6.285,70.7588023 Z" id="Fill-77" fill="#FBB042"></path>
                        <g id="Group-19" transform="translate(0.000000, 16.000000)">
                            <g id="Group-3" transform="translate(168.000000, 8.000000)">
                                <mask id="mask-2" fill="white">
                                    <use xlink:href="#path-1"></use>
                                </mask>
                                <g id="Clip-2"></g>
                                <path d="M3.87743134,1.6483813 C4.17122818,1.66403976 4.47158507,1.64882868 4.7578847,1.70162008 C5.20256285,1.78304409 5.52306849,2.0344743 5.63505804,2.47291131 C5.75501337,2.94311263 5.84685416,3.41689303 5.8346712,3.90588451 C5.81452245,4.67270189 5.9302606,5.43236112 5.98227248,6.19604681 C6.10878787,8.04732471 6.41148764,9.87757554 6.66779844,11.713195 C6.79571955,12.6303336 6.96815533,13.5443406 7.16683134,14.450742 C7.46906254,15.830029 7.80784263,17.2030527 8.14053123,18.5760763 C8.23518348,18.9675379 8.35935599,19.3527362 8.47556271,19.7392766 C8.51258018,19.859623 8.68220451,19.9741535 8.75014796,19.9325468 C8.81996571,19.8900452 8.90290357,19.8462015 8.93992103,19.7817781 C9.02051602,19.6421941 9.08424229,19.4918728 9.13906562,19.3406568 C9.68964183,17.8177593 10.2538067,16.2993356 10.6933306,14.7419894 C10.8470233,14.1975222 11.0307049,13.6606606 11.2167294,13.1255885 C11.7762085,11.5185826 12.2654014,9.89412877 12.6266731,8.23477891 C12.7297597,7.76234066 12.8740809,7.29750795 12.9795104,6.8250697 C13.1458547,6.07704248 13.2976732,5.32588356 13.4504288,4.57517203 C13.5296181,4.18371041 13.709551,4.03652085 14.1495434,4.037863 C14.444746,4.03875777 14.7399486,4.049495 15.0351511,4.05754793 C15.6916254,4.0758907 16.1681667,4.38995476 16.4404091,4.93621149 C16.8021493,5.66276424 17.1399923,6.40273854 17.432852,7.15702915 C17.6680769,7.76323543 17.9187648,8.35915185 18.2378647,8.92777781 C18.5185414,9.42795391 18.7289318,9.95363094 18.8891846,10.4980981 C19.2654507,11.7776184 19.6374997,13.0584808 20.0090801,14.3393432 C20.2232191,15.0766332 20.424238,15.8175022 20.6514971,16.5516605 C20.7091319,16.7377726 20.8333044,16.9086735 20.9481054,17.0728637 C20.970597,17.1050754 21.1313184,17.1028385 21.1608386,17.0666003 C21.2615824,16.94178 21.3613889,16.8035381 21.4087151,16.6550064 C22.0844009,14.5361925 22.7432181,12.4120099 23.4245269,10.2945381 C23.8082902,9.10136308 24.1953336,7.90774069 24.6381374,6.73380322 C25.2519713,5.10442813 25.9126628,3.49071151 26.5691371,1.87610011 C26.7514129,1.42647849 26.9805463,0.993857477 27.2059312,0.561683853 C27.2790289,0.421205056 27.3952357,0.293253031 27.5175339,0.186328086 C27.6773181,0.0462966742 27.8891142,-0.0342325724 28.1013789,0.0140849756 C28.5095082,0.107588379 28.9129517,0.22569794 29.3117094,0.350965657 C29.5638031,0.43015275 29.7582619,0.778665434 29.6935985,1.04754364 C29.6186264,1.36026555 29.5028883,1.66359238 29.4138589,1.97362998 C29.3196752,2.30201035 29.3346696,2.61831134 29.6078492,2.87108369 C29.9794295,3.21467515 30.0478416,3.63745369 29.9738066,4.09557563 C29.8458855,4.8919204 29.7076557,5.68647563 29.5745803,6.48237302 C29.1261536,9.16131263 28.2288315,11.7167741 27.2293599,14.2444976 C26.3198549,16.5462919 25.5214022,18.8798505 25.0195579,21.2984123 C24.7651214,22.5229042 24.4858504,23.7424749 24.2192309,24.9647299 C24.1850249,25.1222093 24.1583161,25.2810309 24.1292644,25.4398525 C24.0327379,25.9637399 24.0191492,26.4795745 24.2482826,26.9833297 C24.4610159,27.4508467 24.4066611,27.9273114 24.2679628,28.402434 C24.2276653,28.5402285 24.049138,28.6883128 23.8949767,28.6838389 C23.559008,28.6748912 23.2206965,28.6726543 22.8884765,28.6310475 C22.6363829,28.5997306 22.3917865,28.4937004 22.2305965,28.2977459 C21.8313702,27.8127809 21.2882912,27.4933482 20.7812925,27.1376774 C20.4265808,26.8889315 20.1852644,26.5851573 20.0034572,26.2115911 C19.5222301,25.2206339 19.1820443,24.1840436 18.8624758,23.1389529 C18.2247446,21.0514559 17.5865447,18.9635115 16.9497506,16.8755671 C16.7730977,16.2957565 16.6114391,15.7119195 16.4226032,15.1352406 C16.3101451,14.7920965 16.1653552,14.4574527 16.0200968,14.1250459 C15.9919823,14.0615173 15.8963929,13.99262 15.8265752,13.9863567 C15.7591003,13.9805407 15.6592937,14.0369111 15.6185276,14.0946238 C15.5257497,14.2270496 15.4489033,14.3724497 15.3870513,14.520534 C14.934876,15.6058893 14.4901978,16.6921393 14.103623,17.8025482 C13.6509791,19.101306 13.1397632,20.3835105 12.5962157,21.650504 C12.1107714,22.7837295 11.8296261,23.9518509 11.7387225,25.1647109 C11.6876478,25.850999 11.5986184,26.530129 11.3830737,27.185995 C11.1876777,27.7787797 11.1356658,28.3666432 11.3015416,28.9701652 C11.3226274,29.0471153 11.3277818,29.1285393 11.3338733,29.2086212 C11.3577706,29.5097111 11.0972426,29.8448022 10.7818913,29.938753 C10.485283,30.0273352 10.1755546,30.0286774 9.92018098,29.8859616 C9.48534292,29.6434791 9.07159075,29.3611794 8.67189585,29.0668002 C8.43620237,28.8923202 8.31437274,28.6212051 8.21222328,28.3541164 C8.02432451,27.8624406 7.83267713,27.3716596 7.66070992,26.8746152 C7.53747457,26.5180496 7.33083277,26.2496188 7.00470422,26.0210052 C5.75923054,25.1472629 5.77047636,25.1347361 5.01981841,23.8834011 C4.51235114,23.0369492 4.18200541,22.1229423 3.90601444,21.1928295 C3.35262678,19.3330512 2.8339137,17.463878 2.28146319,15.6040997 C1.84381367,14.1304145 1.47551333,12.6419656 1.13579609,11.1454638 C0.822319082,9.76483459 0.60911723,8.37078386 0.481664694,6.96510112 C0.382795264,5.88108798 0.299388825,4.79483792 0.0369865454,3.73319402 C-0.115769067,3.11267143 0.220199566,2.91671693 0.758124239,2.89747939 C1.13720182,2.88361046 1.51721655,2.87197846 1.89629413,2.85721477 C2.1301133,2.84781969 2.2908347,2.73149967 2.37798974,2.52972916 C2.44218458,2.38119744 2.49560219,2.22774449 2.54199117,2.07339677 C2.62633476,1.79378133 2.84609666,1.70654131 3.11787045,1.69938315 C3.37043265,1.69267238 3.62346342,1.698041 3.87602561,1.698041 C3.87649419,1.68148777 3.87696276,1.66493453 3.87743134,1.6483813" id="Fill-1" fill="#231F20" mask="url(#mask-2)"></path>
                            </g>
                            <path d="M154.62311,12.0366971 L154.62311,12.0211325 C154.33791,12.0211325 154.053158,12.0157961 153.768406,12.0242454 C153.675279,12.0273583 153.583048,12.0642685 153.491265,12.088727 C153.338143,12.1291947 153.232032,12.2950679 153.259791,12.4516023 C153.292027,12.6361529 153.337248,12.8189246 153.358738,13.0043646 C153.374856,13.1395535 153.196215,13.3223252 153.061002,13.3187676 C152.935639,13.3156547 152.80177,13.319657 152.688496,13.2769658 C152.362553,13.1546733 152.039744,13.0225973 151.727233,12.8713993 C151.451882,12.7384339 151.178323,12.7326528 150.894914,12.8118094 C150.773133,12.8456067 150.651352,12.8847403 150.536735,12.9372149 C149.785902,13.2818575 149.055664,13.6634103 148.423926,14.2019422 C148.038884,14.5296862 147.669511,14.8756629 147.295214,15.2158586 C146.182173,16.2262173 145.292546,17.4011152 144.624989,18.7463332 C144.301733,19.3973742 143.973551,20.0453024 143.762225,20.7412581 C143.56075,21.4047508 143.386137,22.076248 143.205705,22.7459665 C143.164962,22.8971646 143.139889,23.053699 143.122428,23.2097888 C143.09646,23.4414776 143.159141,23.6495972 143.34047,23.8065764 C143.580002,24.0129173 143.828489,24.2094748 144.065782,24.4175944 C144.134284,24.477629 144.192488,24.5590091 144.229201,24.6417233 C144.24711,24.6826357 144.222038,24.7675735 144.18622,24.8004813 C144.145477,24.8382808 144.069364,24.8609605 144.012055,24.8547347 C143.76133,24.8267186 143.512396,24.7840274 143.26167,24.7506749 C143.114369,24.731108 142.948263,24.8574029 142.912893,25.0099351 C142.891403,25.1015433 142.867225,25.1931515 142.853794,25.2865386 C142.637095,26.7549385 142.867225,28.1748662 143.327486,29.5694459 C143.509261,30.1186506 143.824459,30.5891434 144.20592,31.0169449 C144.94735,31.8476448 145.858916,32.2718888 146.993896,32.1495963 C147.057025,32.1429257 147.119707,32.1340317 147.183283,32.1304741 C148.044704,32.0784442 148.874336,31.8814421 149.692775,31.6177349 C151.769766,30.9475717 153.618866,29.8580563 155.363198,28.5804327 C156.542503,27.716825 157.589281,26.7064662 158.54338,25.6036098 C158.872905,25.2225017 159.175119,24.8156011 159.470616,24.4064769 C160.465907,23.031464 160.819161,21.5097 160.505306,19.8385168 C160.452923,19.5605792 160.413523,19.2773052 160.405912,18.9953653 C160.396509,18.6436074 160.319949,18.3096376 160.220106,17.9761125 C160.002065,17.2476936 159.696717,16.5579637 159.316152,15.8993627 C159.064083,15.4622224 158.811119,15.0246375 158.578751,14.5768244 C158.446224,14.3215665 158.286835,14.0925459 158.094313,13.8804239 C157.796577,13.5513458 157.489886,13.2364981 157.107082,12.9994729 C156.784273,12.7998025 156.462808,12.5943511 156.16328,12.3626623 C155.87226,12.137644 155.554824,12.0349183 155.193958,12.0366971 C155.003676,12.0371418 154.813393,12.0366971 154.62311,12.0366971 M140.299977,24.4891912 C140.318334,24.0333735 140.364001,23.2471436 140.502796,22.4698077 C140.542196,22.2474576 140.531898,22.0366697 140.445935,21.8223243 C139.790019,20.1938322 139.93553,18.5564462 140.38191,16.9097215 C140.747701,15.5618353 141.494952,14.4563107 142.475467,13.4788597 C143.717901,12.2408144 145.139424,11.2415732 146.663924,10.390417 C147.602801,9.86611553 148.608388,9.47300058 149.657853,9.19773118 C150.248401,9.04342022 150.845217,8.9931691 151.447405,9.00072901 C151.988703,9.00695481 152.524629,9.09100314 153.02787,9.29778872 C153.584391,9.5263646 154.150762,9.74026539 154.678628,10.0239841 C155.600939,10.5193801 156.554143,10.9414005 157.511825,11.3607528 C158.3822,11.7418608 159.236905,12.1594343 159.998483,12.739768 C161.26196,13.7029886 162.405446,14.788057 163.376112,16.0461138 C164.287677,17.2272374 164.774353,18.5751236 164.947622,20.044413 C165.120444,21.5181493 164.851362,22.9349641 164.349911,24.3113111 C164.07859,25.0544051 163.619673,25.7063355 163.176427,26.3600448 C163.052855,26.5428165 162.915851,26.7175837 162.772132,26.8852357 C161.219874,28.6978335 159.473751,30.2818555 157.37303,31.4585322 C156.460569,31.9694927 155.55169,32.4857896 154.567145,32.8473308 C153.135324,33.3734111 151.670372,33.7825353 150.148558,33.9408485 C149.071335,34.0524683 147.991425,34.0022172 146.924499,33.823003 C145.978458,33.6646897 145.09107,33.3249388 144.257856,32.8540013 C144.065782,32.7454945 143.881768,32.6165314 143.715662,32.4724486 C142.753951,31.6386358 141.905962,30.7069889 141.293028,29.5858998 C141.142593,29.3110751 141.027976,29.0144601 140.920522,28.7196239 C140.461605,27.460233 140.294157,26.1532592 140.299977,24.4891912" id="Fill-4" fill="#231F20"></path>
                            <g id="Group-8" transform="translate(0.000000, 3.000000)">
                                <mask id="mask-4" fill="white">
                                    <use xlink:href="#path-3"></use>
                                </mask>
                                <g id="Clip-7"></g>
                                <path d="M4.81538801,9.88036772 C4.45748976,10.2514081 4.23677806,10.6709035 4.22837444,11.1698114 C4.22791226,11.2021148 4.26430869,11.2505699 4.29650554,11.263581 C4.32730252,11.2756947 4.39776228,11.2640296 4.41036104,11.2420454 C4.64647123,10.8207553 4.79345683,10.3703025 4.81538801,9.88036772 M23.5100889,11.6162263 C23.4825583,10.7076935 23.4522279,9.77448438 23.1101948,8.89331967 C22.846554,8.21405114 22.5544493,7.54285846 22.2301477,6.88826614 C21.7565275,5.92948355 21.0971921,5.10888769 20.211079,4.45160342 C19.4584194,3.89347261 18.6376332,3.54172457 17.6889928,3.46859328 C16.6750256,3.39052676 15.6769234,3.51704837 14.6872204,3.70279287 C14.1772037,3.79835707 13.77311,4.06441138 13.4385428,4.46057658 C12.484303,5.59164392 11.6149882,6.77969085 10.9495868,8.08752953 C9.97201591,10.007338 9.03924067,11.9477847 8.08873383,13.8801556 C7.48119338,15.1139657 7.3010777,16.4182151 7.37993664,17.7695736 C7.40186782,18.1509331 7.53345493,18.4744157 7.79382941,18.756173 C8.37850543,19.3896784 8.94824959,20.0361949 9.54972396,20.6548946 C10.4134393,21.5432378 11.4022091,22.2875618 12.4656382,22.9470893 C12.8911964,23.211349 13.3162881,23.2741612 13.7777762,23.0960439 C14.3218562,22.8865205 14.8771351,22.6962894 15.3983507,22.4419002 C16.7170214,21.7985243 17.8677087,20.9272301 18.9605349,19.9747287 C20.832618,18.3434075 22.200284,16.4047554 23.0667991,14.1165985 C23.3757021,13.3009379 23.5259541,12.4897639 23.5100889,11.6162263 M14.5901632,25.9773269 C13.4978037,26.0226414 12.4124434,26.0172575 11.3322159,25.7974149 C10.545493,25.6376926 9.78816726,25.406185 9.06210509,25.0903296 C8.28658111,24.7529386 7.6398445,24.2324951 7.08643208,23.6160387 C6.56568312,23.035475 6.0570663,22.4432462 5.57131392,21.8353143 C4.97870534,21.0932336 4.54194815,20.2690485 4.2601091,19.3690401 C4.07906018,18.7911684 3.93720742,18.1895177 3.65910135,17.6556144 C3.39966011,17.1576038 2.97643493,16.739903 2.63673489,16.2786824 C1.85701131,15.221195 1.1990758,14.0977549 0.68532616,12.8980428 C0.199573772,11.7620402 -0.0426024909,10.5874531 0.00592608581,9.35409164 C0.0390561718,8.52721457 0.274699741,7.76180367 0.69045899,7.04888578 C1.08195395,6.37859042 1.55090798,5.75899343 2.11645255,5.20938713 C2.76598889,4.57857369 3.4439891,4.00294521 4.26104235,3.55249237 C5.71923275,2.7480482 7.20402055,1.99609705 8.72427154,1.31189328 C10.2533883,0.623651594 11.8496985,0.13910073 13.5486653,0.00988716655 C13.8048402,-0.00940513635 14.0442168,-0.00446989608 14.2919925,0.0610342021 C15.1029797,0.275492825 15.9041678,0.519114232 16.66336,0.868618975 C17.4262853,1.21946969 18.2265402,1.45008001 19.0496595,1.62101879 C19.4187566,1.69729068 19.7850541,1.78702232 20.153218,1.86688349 C20.9002781,2.0288491 21.5932102,2.29041683 22.1741532,2.79426 C22.391132,2.98224779 22.6319084,3.15453254 22.8866834,3.29137329 C24.3364746,4.07158991 25.4932279,5.18830019 26.6191842,6.32923801 C27.6224192,7.34724348 28.2458248,8.58419416 28.5197312,9.9611262 C28.661584,10.6718008 28.8146357,11.3851673 28.8323673,12.1169289 C28.8416997,12.518478 28.9126261,12.9200271 28.9700204,13.3197815 C29.0278814,13.7249199 28.9980177,14.1206364 28.9144926,14.5217369 C28.6125888,15.9704542 28.0307125,17.2962392 27.0797391,18.4631992 C26.2514869,19.4798587 25.4409664,20.5104266 24.5828505,21.5033072 C22.9949394,23.3401139 21.0495968,24.7035862 18.6945609,25.5116197 C18.0935532,25.7180024 17.483213,25.8431781 16.8537414,25.8808654 C16.1001486,25.9266285 15.3446893,25.9463695 14.5901632,25.9773269" id="Fill-6" fill="#231F20" mask="url(#mask-4)"></path>
                            </g>
                            <path d="M87.4703419,13.0043386 C87.4229273,13.5501045 87.3851797,13.8341023 87.3768936,14.1190075 C87.3547975,14.8516857 87.3221136,15.5861786 87.3405271,16.3188569 C87.3515751,16.7630005 87.4482458,17.2057831 87.5108515,17.6485657 C87.5232806,17.7370315 87.7244476,17.8536249 87.8022445,17.823229 C87.9555365,17.7633444 88.1115906,17.7093576 88.2579775,17.635863 C88.8228103,17.3550408 89.317672,17.0247685 89.4852344,16.3524285 C89.5579676,16.0611719 89.8562656,15.8837866 90.1600876,15.8973968 C90.6825694,15.921895 90.8869588,15.6324531 91.0393301,15.210993 C91.219782,14.7119552 91.4287747,14.2228981 91.6391485,13.7352021 C91.9793371,12.9476297 92.3209067,12.1609647 92.6795088,11.3820121 C92.9874738,10.7142088 93.3313451,10.062284 93.6370085,9.39357332 C93.8575096,8.91132135 94.0457872,8.41364457 94.2395889,7.91959716 C94.3192271,7.71635267 94.1967776,7.48407327 93.9988329,7.43099379 C93.8390962,7.38880241 93.6793595,7.34298167 93.5168607,7.31666877 C91.8863491,7.05716912 90.3014109,7.28309714 88.7468548,7.7794129 C88.3942371,7.89192324 88.0512865,8.04118091 87.7147806,8.19724364 C87.384259,8.35103801 87.2231413,8.62051842 87.2618095,8.99026005 C87.282985,9.19305087 87.3124465,9.39538801 87.3221136,9.59908616 C87.3778143,10.8203677 87.4284513,12.0416493 87.4703419,13.0043386 M87.0970091,34.9810556 C86.7324227,35.1539041 86.3682966,35.3376407 85.9940431,35.4986939 C85.8214169,35.5735495 85.7652559,35.7087434 85.6948244,35.8570937 C85.629917,35.9913803 85.5106898,36.0022684 85.4071141,35.9051828 C85.2570445,35.7649986 85.1143402,35.6184629 84.9628895,35.480547 C84.8758859,35.4016083 84.7258162,35.4664832 84.6784016,35.6053065 C84.6424954,35.7082897 84.6222406,35.816717 84.5752862,36 C84.3400543,35.6298047 84.1485544,35.3240306 83.9519907,35.0214323 C83.7296483,34.6784572 83.5257192,34.3200573 83.2711532,34.0006731 C82.9516797,33.5991746 82.7785932,33.1550309 82.7325596,32.6555395 C82.694812,32.2490505 82.644175,31.8425615 82.6349683,31.4351652 C82.6206978,30.7823331 82.6239202,30.1285936 82.6404923,29.4757614 C82.6708745,28.2513041 82.7164478,27.0273005 82.7560367,25.8028432 C82.7587988,25.7216362 82.7564971,25.6395218 82.7615608,25.5583147 C82.8665175,24.0503133 82.8421196,22.5404971 82.8605331,21.0306809 C82.8794069,19.4813954 82.9760775,17.9289342 83.1279886,16.3864538 C83.3291556,14.3481112 83.336521,12.3102224 83.2964717,10.2687041 C83.29417,10.146213 83.2835823,10.023722 83.2725342,9.9021382 C83.240771,9.56778288 82.998634,9.41761787 82.6625884,9.49655658 C82.2105381,9.60271553 81.8017594,9.79779393 81.4380936,10.0745331 C81.1236838,10.3140712 80.7798125,10.3975466 80.3922093,10.3735021 C80.0616877,10.3526332 79.7302455,10.3431061 79.3992636,10.3376621 C78.7916196,10.3276813 78.3998733,10.0092045 78.1278145,9.5024543 C78.0058253,9.27516527 77.9584107,9.04742256 78.0421919,8.79790367 C78.2000873,8.32245676 78.4459069,7.90371868 78.8436376,7.58297348 C79.5838585,6.98503547 80.350779,6.43291821 81.2907859,6.17069653 C82.051722,5.95792497 82.7587988,5.63082838 83.4525257,5.25473535 C85.0181299,4.40637111 86.6431174,3.68821036 88.3993008,3.30894164 C89.9092042,2.98275239 91.4287747,2.88748154 92.9649173,3.15650827 C93.9408305,3.32799581 94.7827858,3.70862554 95.3936523,4.50118829 C95.6726161,4.86367119 96.0082014,5.1594645 96.3796929,5.42486187 C96.9219691,5.81229667 97.3620508,6.29681699 97.7409076,6.84076819 C98.1386383,7.41284696 98.5478774,7.97675967 98.9561957,8.54248705 C99.2954637,9.01248992 99.5468074,9.52150847 99.7088458,10.0777088 C99.9017267,10.7409754 99.8322159,11.3733923 99.5118218,11.9776817 C99.3589901,12.26667 99.1872846,12.5483995 98.9957847,12.8137969 C98.4199038,13.61135 97.8403403,14.4079958 97.2414426,15.1887631 C96.8874439,15.6487852 96.4689981,16.0443861 95.8659574,16.1832093 C95.7867796,16.2013561 95.703919,16.2331131 95.6394719,16.2807485 C94.8776151,16.8419392 94.1037896,17.3908808 93.4404449,18.0686648 C93.2857718,18.2269959 93.2761048,18.4338697 93.368172,18.6389289 C93.5352742,19.0127536 93.6959316,19.3888466 93.8671767,19.7604029 C94.211048,20.5035156 94.5696501,21.2398231 94.9043146,21.9865652 C95.5446426,23.4151742 96.3640414,24.731273 97.3795435,25.9316857 C98.3347416,27.0604185 99.2853363,28.1927806 100.218438,29.3382992 C100.65898,29.8790747 101.063616,30.4488851 101.466871,31.0173345 C101.632592,31.2496139 101.777137,31.5032158 101.885777,31.7654375 C102.012369,32.0689432 102.091087,32.3810687 101.803837,32.6745936 C101.69842,32.7825673 101.668958,32.9672112 101.619702,33.1214593 C101.532238,33.3945691 101.320023,33.4880252 101.059933,33.5315776 C100.684759,33.5937305 100.464718,33.4780445 100.461496,33.1200983 C100.45413,32.2349867 100.008525,31.5762568 99.4289612,30.9638013 C98.439238,29.9194513 97.4467527,28.8773697 96.4805065,27.8121509 C94.9876355,26.1662335 93.5670374,24.4631536 92.4788021,22.5200819 C92.1386135,21.9126168 91.8343311,21.2860976 91.5061113,20.6727347 C91.3910272,20.4572412 91.2566089,20.2517283 91.1231114,20.0466692 C91.0476162,19.9309831 90.8004155,19.8751816 90.6701403,19.9309831 C90.6323927,19.9468616 90.5909625,19.957296 90.5559769,19.9777112 C89.6615433,20.4917201 88.7671096,21.0061827 87.8745173,21.5220063 C87.8031652,21.5632904 87.7354957,21.6118331 87.6710486,21.6626443 C87.4712626,21.8196143 87.3198119,22.0092487 87.2848264,22.2673873 C87.1959814,22.9147754 87.0896437,23.5603489 87.0274983,24.2100053 C86.938193,25.144567 86.8700633,26.0813971 86.8162039,27.0191344 C86.7927267,27.4247161 86.7904251,27.8384638 86.8433637,28.240416 C87.0086245,29.4952692 87.2038072,30.7460394 87.3902434,31.9977169 C87.4201653,32.1996004 87.4740246,32.3983082 87.5021051,32.599738 C87.5941724,33.2516628 87.6425078,33.8954215 87.2424754,34.4883692 C87.1559322,34.616758 87.1490271,34.7968653 87.0970091,34.9810556" id="Fill-9" fill="#231F20"></path>
                            <path d="M75.5102547,7.94706784 C75.6138513,7.90036167 75.737882,7.87380325 75.7412085,7.83762887 C75.7602171,7.60913495 75.526412,7.39895718 75.2740735,7.40399412 C75.2474615,7.40490993 75.2103949,7.45436352 75.199465,7.48824839 C75.1875846,7.52259116 75.1866342,7.57662379 75.2075436,7.6022664 C75.3054376,7.72315296 75.4128359,7.83762887 75.5102547,7.94706784 M74.0860394,9.54927268 C74.00953,9.28552018 73.9244667,8.9237763 73.7975847,8.57622744 C73.5305146,7.84312371 72.9982753,7.40857315 72.1761557,7.38796749 C71.4067847,7.36919344 70.6369386,7.38842539 69.8675677,7.39849927 C69.1642515,7.40765735 68.5141592,7.6150877 67.9286959,7.97454206 C67.4981524,8.23875246 67.088043,8.54005305 66.6959917,8.85646447 C66.071561,9.36061638 65.5849422,9.99756034 65.0161114,10.5529975 C64.31232,11.2407687 63.8214243,12.0530898 63.3409833,12.8796059 C63.3001149,12.9496651 63.2896602,13.035751 63.2630482,13.1135946 C63.2131508,13.2560027 63.3637935,13.4753385 63.5187132,13.4643488 C63.7715268,13.4455748 64.0305183,13.4373325 64.2743029,13.3773471 C65.3516123,13.1126788 66.420843,12.8168731 67.5000532,12.5586154 C68.4956258,12.3205055 69.5002275,12.1153647 70.5010275,11.8974026 C70.7509899,11.8433699 71.0019027,11.7875057 71.2551916,11.7494997 C72.8148428,11.515053 72.4745898,11.5269585 73.5984701,10.6290095 C73.6635744,10.5768085 73.7244018,10.5168231 73.7776257,10.4527166 C73.9729385,10.2191857 74.0499231,9.94352771 74.0860394,9.54927268 M71.2580429,5 C71.8572873,5.10531784 72.6000462,4.98168385 73.2986103,5.2390257 C73.4164633,5.28206864 73.5490479,5.30404802 73.6749795,5.30587963 C74.5379676,5.31915884 75.2260769,5.74958826 75.882347,6.2074919 C76.3727675,6.55000383 76.6678752,7.07292979 76.9240153,7.59448203 C77.0095538,7.76894332 77.0024256,7.99697933 76.9971983,8.19937274 C76.9924461,8.36009692 76.9553794,8.5336424 76.8817213,8.67696624 C76.6384119,9.1490649 76.6289077,9.62024774 76.7919059,10.1156995 C76.8959777,10.4344004 76.8826718,10.7654648 76.8123401,11.0942396 C76.7524632,11.3763082 76.7215743,11.6652454 76.6488666,11.9441087 C76.5980188,12.1400915 76.5200837,12.3356163 76.4174376,12.5123671 C76.2929316,12.727124 76.1256564,12.9180698 75.9859436,13.1255001 C75.4855436,13.8663882 74.7432599,14.2418692 73.8707676,14.3916037 C72.9032326,14.5573648 71.929995,14.6951938 70.9567574,14.8307333 C70.6630754,14.8719446 70.3589386,14.8920924 70.0633557,14.8719446 C69.501178,14.8339386 68.9532566,14.8989609 68.4086617,15.0106894 C67.4473045,15.2080459 66.4868977,15.388002 65.5051063,15.4905724 C64.5736875,15.587648 63.6570003,15.8179735 62.735561,16.001135 C62.4033867,16.0670731 62.2280329,16.305183 62.1843132,16.6115205 C62.14392,16.8949629 62.1187337,17.1871054 62.1420192,17.4714636 C62.2156773,18.3762812 62.3767747,19.2696512 62.6148568,20.1483683 C62.909014,21.2349736 63.5367713,22.0637792 64.548026,22.6563065 C65.5611815,23.2502075 66.6261353,23.5798982 67.8141695,23.6220253 C69.0250139,23.6650682 70.2021181,23.5157917 71.3659164,23.2236491 C72.1200804,23.0345349 72.8823232,22.9823339 73.6531197,23.0803253 C73.7704975,23.0954361 73.9596325,23.1728218 73.9757898,23.2488338 C74.0979197,23.8349505 74.5674308,24.2484375 74.7708222,24.7896796 C74.7855539,24.8281435 74.7888804,24.8702706 74.8021863,24.9091924 C74.8611128,25.0850274 74.734706,25.3616012 74.5536496,25.424334 C74.3535847,25.4934775 74.1511436,25.5598735 73.9449009,25.6084113 C73.571383,25.6972446 73.1935881,25.7695934 72.8186445,25.8524739 C72.4707881,25.9289438 72.1752052,26.065857 72.0440463,26.4234798 C71.9494787,26.6812795 71.7156736,26.7865974 71.4623847,26.8607778 C70.8322514,27.0457708 70.1878617,27.0265389 69.5563027,26.9184736 C68.8776976,26.802624 68.1986173,26.7856816 67.5157353,26.7517967 C66.6209079,26.70738 65.727031,26.6103045 64.8383815,26.4981181 C64.5508772,26.4619437 64.2647986,26.3332728 64.0039063,26.2000228 C63.7035713,26.0461672 63.42272,25.8524739 63.1499474,25.6546596 C62.6714072,25.3080265 62.2123508,24.9375825 61.7338106,24.5914073 C60.54245,23.7282589 59.6675816,22.6183005 59.0702381,21.3183121 C58.0390244,19.0732105 57.7391646,16.7333229 58.2310107,14.3123864 C58.2638005,14.1507464 58.2899372,13.9849853 58.3493389,13.8320454 C58.9780466,12.2074033 59.6571269,10.6070301 60.807144,9.24064562 C61.0765902,8.92057098 61.3317799,8.58996455 61.594573,8.26439506 C62.2964636,7.39392024 63.1813115,6.772545 64.285708,6.46025471 C65.7208533,6.05455209 67.1578994,5.65297059 68.5958959,5.25596814 C68.8002378,5.19964599 69.0131335,5.16118208 69.2246036,5.14332384 C69.8632908,5.09066492 70.5034036,5.05220102 71.2580429,5" id="Fill-11" fill="#231F20"></path>
                            <path d="M51.2402817,19.1860804 C51.2402817,18.3889104 51.2442261,17.3535209 51.2376521,16.3181315 C51.2363372,16.0404306 51.2117942,15.7627298 51.185498,15.4859161 C51.1679672,15.2978248 50.9676781,15.1359066 50.7783457,15.1172749 C50.4575325,15.0853349 50.1546884,15.1567563 49.8522825,15.2521328 C48.6466034,15.632308 47.5000907,16.1460102 46.3785593,16.7346827 C45.169374,17.3694909 44.162231,18.2389696 43.2786799,19.2694793 C42.9653173,19.6350153 42.7580159,20.0688674 42.6011154,20.520464 C42.4310669,21.0106548 42.5086406,21.4689056 42.8943176,21.836216 C43.0932919,22.0260817 43.3058526,22.206188 43.5319996,22.3623393 C44.0250527,22.7021458 44.5750808,22.909756 45.1527198,23.0579223 C46.5639473,23.4190221 47.9703537,23.7974228 49.3807046,24.1594099 C49.6072899,24.217523 49.8448319,24.2481322 50.079306,24.2565608 C50.4763781,24.2707564 50.9435733,23.8746112 51.0154495,23.4793533 C51.0443753,23.3236456 51.0579616,23.1635018 51.0658505,23.0051325 C51.1219489,21.8118173 51.1754178,20.6185022 51.2402817,19.1860804 M52.3223688,30 C52.2149928,29.9130521 52.1260241,29.8349765 52.0309197,29.7653295 C51.3770217,29.2835673 51.1377266,28.5737888 50.9808262,27.8183182 C50.9646102,27.7406862 50.9611041,27.6599489 50.9571596,27.5800988 C50.9032525,26.6418603 50.8936106,26.58286 49.8470233,26.376137 C48.5681532,26.1241656 47.3098818,25.7945622 46.0489807,25.4662896 C44.4549949,25.0515128 43.2103099,24.1159359 42.0874637,22.963433 C41.573812,22.4364225 41.2893751,21.7714487 41.1048637,21.0754221 C40.9036981,20.3172899 40.9887223,19.5751277 41.3879857,18.8764395 C41.8039034,18.1466984 42.2789874,17.4599877 42.8355895,16.8380442 C43.3917534,16.2165444 43.97509,15.6198868 44.5588648,15.0250037 C44.9489245,14.6270841 45.3832495,14.2815107 45.8631545,13.9975993 C46.4425466,13.6551311 47.0179943,13.3064524 47.5995778,12.9684204 C47.8388729,12.82957 48.0864951,12.702697 48.3363087,12.58514 C49.1650761,12.195649 50.0065533,11.8602786 50.9514621,11.967189 C51.1026651,11.9840463 51.2713988,11.8389853 51.2871765,11.6930371 C51.3353861,11.2578541 51.4020031,10.8222275 51.4112067,10.3852701 C51.4475831,8.62856824 51.4673052,6.87097913 51.4865891,5.11383364 C51.4927248,4.55488304 51.4743175,3.99548883 51.4773854,3.43653823 C51.4817681,2.59057094 51.4011265,1.76146089 51.0531406,0.978486437 C51.021147,0.90662136 51.011505,0.824996828 50.9922212,0.747808413 C50.8883513,0.332587968 51.2810407,-0.101707774 51.6711005,0.0211726348 C52.1597709,0.174218632 52.6458116,0.3414602 53.1160747,0.542416248 C53.36545,0.64932664 53.5885291,0.828989333 53.8059107,0.998005347 C54.0951685,1.22291642 54.2695997,1.52191063 54.3739078,1.8843413 C54.6517706,2.84697844 54.8472388,3.82425476 54.898078,4.8250425 C54.9445346,5.74243126 54.977843,6.66115085 54.9879232,7.57898322 C55.0037009,9.05665342 54.9949356,10.5343236 54.9966886,12.0115502 C54.9966886,12.0914003 55.0041392,12.1721376 54.9966886,12.2511004 C54.847677,13.881373 54.8371586,15.5200742 54.6736841,17.1499032 C54.502759,18.8560333 54.2941428,20.5586146 54.2945811,22.2811584 C54.2950193,23.8404531 54.096045,25.390432 53.8694598,26.9306514 C53.7712874,27.5991741 53.602992,28.2570501 53.5635477,28.9375503 C53.5328689,29.4689969 53.5179677,29.471215 52.914909,29.4876286 C52.7417926,29.4925083 52.6182006,29.5572756 52.5301085,29.7112089 C52.4735717,29.8101342 52.3973129,29.8975257 52.3223688,30" id="Fill-13" fill="#231F20"></path>
                            <path d="M117.041906,18.1201368 C117.146078,15.8705737 117.243738,13.6210106 117.35814,11.3723606 C117.394414,10.6596413 117.489749,9.94966144 117.531139,9.23694213 C117.566948,8.62330039 117.775755,8.05668626 117.96596,7.48459318 C118.068737,7.17548942 118.389621,6.9937711 118.762126,7 C119.109518,7.00564215 119.432728,7.08736973 119.679204,7.338488 C120.104725,7.77178116 120.519084,8.21694537 120.936699,8.65800037 C121.214334,8.9506673 121.31897,9.32140918 121.426397,9.69260764 C121.562656,10.1656231 121.701241,10.6386387 121.853312,11.1070884 C121.920745,11.316658 122.217911,11.4403908 122.402071,11.3522711 C122.702958,11.2084488 123.005241,11.0659963 123.294502,10.9020845 C124.316216,10.3231428 125.384901,9.8519536 126.506601,9.49353934 C127.693409,9.11412246 128.881611,8.90546601 130.131665,9.23374608 C130.610201,9.35976179 131.130592,9.32780128 131.631451,9.37208941 C132.501559,9.44879463 133.263311,9.76885628 133.846018,10.4158283 C134.101331,10.6993636 134.322229,11.0262739 134.492903,11.3655119 C134.664971,11.7074893 134.789604,12.0809707 134.874243,12.4539955 C135.202569,13.9004367 135.578794,15.3400293 135.68436,16.8261928 C135.851313,19.1894441 136.316363,21.5061242 136.817687,23.8168689 C136.933949,24.3533489 137.057188,24.8889156 137.172985,25.4253956 C137.498985,26.936671 138.071926,28.3707846 138.604874,29.8158561 C138.909481,30.6408938 139.276871,31.4444722 139.637749,32.2480507 C139.891201,32.8123819 140.028856,33.389954 139.994908,34.0067917 C139.9684,34.4935046 139.443358,34.9258846 138.951801,34.8624202 C138.319333,34.7806926 137.785456,34.5377927 137.357145,34.0497101 C136.47634,33.0470634 135.673199,31.9946495 135.074215,30.8043489 C134.628232,29.9181297 134.18969,29.0278013 133.778121,28.1260584 C133.550247,27.6265614 133.370272,27.1042354 133.193553,26.5846488 C132.502954,24.551504 131.925362,22.4886815 131.442641,20.3980078 C131.157565,19.1643322 130.912019,17.9260909 130.74088,16.6736956 C130.569742,15.42267 130.41209,14.1702747 130.246997,12.918336 C130.232581,12.8101268 130.205143,12.7028308 130.183285,12.5950783 C130.107482,12.2188574 129.774507,12.0229852 129.442926,12.1887233 C128.846267,12.4877823 128.21659,12.7498584 127.679457,13.1338411 C126.505206,13.9730327 125.352813,14.8478374 124.244599,15.7701264 C123.520051,16.3723536 122.901535,17.088269 122.547167,17.9881856 C122.34301,18.5073155 122.214191,19.0287284 122.20675,19.5889504 C122.192799,20.6317761 122.157455,21.6750584 122.11467,22.7174275 C121.989572,25.7509362 122.243024,28.7552238 122.812245,31.736226 C123.019192,32.815578 123.255903,33.889451 123.453549,34.9701728 C123.521911,35.3436541 123.540048,35.7322026 123.528422,36.112076 C123.517726,36.4709469 123.27311,36.7161296 122.956411,36.8654308 C122.577395,37.0430399 122.130947,37.0713478 121.846337,36.7873559 C121.102257,36.0445024 120.365618,35.3021054 119.490859,34.7021611 C119.36483,34.6158677 119.277401,34.4451073 119.22299,34.2953495 C119.110913,33.9862457 119.002557,33.6698367 118.949076,33.3470356 C118.848625,32.742982 118.670046,32.1850428 118.318933,31.6645432 C118.00735,31.2029421 117.928291,30.6463727 117.827841,30.1016744 C117.350234,27.5005457 117.141427,24.8747617 117.050277,22.2375633 C117.02563,21.5239308 116.998657,20.8098418 117,20.0957527 C117.001447,19.4373663 117.039581,18.7794364 117.061904,18.12105 C117.054928,18.1205934 117.048417,18.1201368 117.041906,18.1201368" id="Fill-15" fill="#231F20"></path>
                            <path d="M32.2025528,30 C31.7457588,29.9715469 31.4237874,29.701242 31.1946833,29.3464955 C30.9019391,28.8926219 30.6412507,28.4167201 30.4027185,27.9334755 C30.2000132,27.5231995 30.07839,27.0794222 30.0453915,26.6218772 C30.0180499,26.2515274 29.991651,25.878424 30.0024934,25.5076153 C30.0411488,24.1450767 30.0350205,22.7816203 30.1938849,21.422753 C30.2702529,20.7674128 30.2754384,20.1033531 30.2919377,19.4425058 C30.3117368,18.6577497 30.3301217,17.8716168 30.313151,17.0868606 C30.27261,15.2658592 30.4239318,13.4517417 30.5304699,11.6371652 C30.5936386,10.5665008 30.75486,9.50088459 30.8986393,8.43618619 C30.9552082,8.02177988 30.9750073,7.616552 30.9160814,7.20352245 C30.8293424,6.58948519 30.7435462,5.97498901 30.6784919,5.35865714 C30.6398365,4.99106084 30.634651,4.61933424 30.6261657,4.24944334 C30.6233372,4.10580084 30.7991723,3.9359998 30.9575652,3.91856078 C31.0824883,3.90525205 31.2107111,3.90754666 31.3361056,3.91764293 C31.5265542,3.93324627 31.6642053,3.85890095 31.7533013,3.7014908 C31.8348548,3.55738938 31.8947236,3.40089708 31.9833482,3.26138487 C32.1832251,2.9493181 32.5924069,2.90342593 32.84461,3.19575907 C33.4437691,3.89056655 34.0410425,4.58766865 34.3083306,5.49036767 C34.4398534,5.93552174 34.4535242,6.38434718 34.4681378,6.83913861 C34.4723805,6.99930229 34.5162214,7.16405519 34.5751474,7.31458151 C34.5954179,7.36689859 34.7198695,7.41508537 34.7882236,7.40590693 C34.9093754,7.38984467 35.0380696,7.34854172 35.1389509,7.28245699 C35.5632177,7.00756288 35.9700425,6.70742807 36.3976092,6.43895887 C37.3333534,5.85199799 38.3398086,5.42428294 39.4339457,5.20078806 C39.9383519,5.0979896 40.4446437,5.07779704 40.9528211,5.14984775 C41.5552801,5.23520719 42.0936276,5.44998256 42.5310938,5.88458143 C42.7677405,6.11954935 43.0350286,6.32514628 43.2881745,6.54451086 C43.5743189,6.79186967 43.8425499,7.05345505 44,7.43114763 C43.8340645,7.60645572 43.6266452,7.76386587 43.5021935,7.96900388 C43.2848746,8.32604498 42.9704457,8.52475809 42.5702207,8.52429916 C41.7542141,8.52384024 41.104143,8.89556684 40.4804707,9.33475492 C38.6184106,10.6468121 36.8793878,12.0937923 35.3840828,13.8023579 C35.2195616,13.9895979 35.0814391,14.1993252 34.9404883,14.4049221 C34.8231078,14.575641 34.7523966,14.7927109 34.6015462,14.9235036 C34.1136393,15.3466295 34.0118152,15.9055961 33.9359186,16.4879678 C33.8025103,17.5118221 33.6587309,18.5352176 33.5149516,19.5576952 C33.4805389,19.8032183 33.464511,20.0592966 33.377772,20.2882985 C33.1085982,21.0028397 33.1227405,21.7472107 33.0591004,22.4874514 C32.9605762,23.639345 32.8540381,24.7921563 32.5933497,25.9243162 C32.5561085,26.0853977 32.5136818,26.2455614 32.474555,26.406184 C32.3835733,26.7788284 32.3765022,27.1533086 32.5669509,27.4947463 C33.0529721,28.3616495 32.9379487,29.1592554 32.3152192,29.9114281 C32.2892918,29.9426348 32.2496935,29.9632863 32.2025528,30" id="Fill-17" fill="#231F20"></path>
                        </g>
                    </g>
                </g>
            </g>
        </g>
    </g>
</svg>