<?xml version="1.0" encoding="UTF-8"?>
<svg width="226px" height="281px" viewBox="0 0 226 281" version="1.1" xmlns="http://www.w3.org/2000/svg" xmlns:xlink="http://www.w3.org/1999/xlink">
    <title>Group 3</title>
    <defs>
        <polygon id="path-1" points="0 0 226 0 226 281 0 281"></polygon>
    </defs>
    <g id="Prototype" stroke="none" stroke-width="1" fill="none" fill-rule="evenodd">
        <g id="Desktop-HD-Copy-7" transform="translate(-1194.000000, -2402.000000)">
            <g id="Group-17" transform="translate(19.000000, 2347.000000)">
                <g id="Group-3" transform="translate(1175.000000, 55.000000)">
                    <mask id="mask-2" fill="white">
                        <use xlink:href="#path-1"></use>
                    </mask>
                    <g id="Clip-2"></g>
                    <path d="M80.5473066,100.903386 C80.3551062,101.115718 79.920566,101.373848 79.920566,101.631978 C79.9163878,102.323099 79.8704268,103.193247 80.2506494,103.672036 C82.1058014,106.020184 84.696329,107.335813 87.4247396,108.43911 C88.281285,108.784671 88.9163821,108.663933 89.2130393,107.843746 C89.317496,107.560636 89.1921479,107.03605 88.9790561,106.82788 C86.8940992,104.829456 84.8091423,102.818542 82.6030156,100.949183 C82.2060799,100.616112 81.2743256,100.903386 80.5473066,100.903386 M114.842549,281 C108.82584,281.032177 102.905231,280.324402 96.9177698,279.512542 C80.8815682,277.339256 65.0626367,273.996059 49.0723962,271.631257 C39.7214272,270.249013 30.6838284,267.738493 21.9596,264.145493 C17.7144773,262.405199 14.3760393,259.765614 11.7186594,255.768765 C8.42200407,250.806012 4.19359449,246.463603 0.378833679,241.838084 C-0.682446986,240.543272 0.64206471,237.703844 2.42200787,237.512328 C3.52507124,237.387427 4.71170002,237.158441 5.7562676,237.412407 C8.30083423,238.028588 10.8036182,238.852938 13.2938673,239.673124 C16.8662884,240.843035 20.3969269,242.150338 23.9777045,243.282778 C27.9679527,244.544283 31.9665574,244.55261 36.1991453,244.169579 C45.9303369,243.282778 55.7367373,243.299431 65.4888203,242.629127 C78.9846335,241.696529 92.5598338,241.442562 105.85509,238.573991 C109.887121,237.703844 113.869013,236.52977 117.838369,235.372349 C120.779872,234.514692 123.29519,233.178246 124.55285,229.976604 C125.033351,228.756733 126.50828,227.70756 127.778474,227.053909 C131.785436,224.997197 135.821645,222.940486 140.008272,221.295949 C147.612724,218.31913 153.746425,213.518749 158.488761,207.019707 C164.467866,198.842821 170.292375,190.553525 176.037497,182.205941 C179.864792,176.64366 183.428857,170.906517 187.097378,165.240152 C188.793756,162.608894 189.462279,159.77363 188.823004,156.655255 C188.08345,153.083072 186.140554,150.3852 182.706016,149.161165 C179.530531,148.028725 176.238054,147.150251 172.928864,146.50909 C168.504075,145.651432 164.02497,145.014435 159.537507,144.481522 C150.579296,143.419859 141.591836,142.537222 132.625268,141.496376 C123.646165,140.45553 114.754806,139.12741 106.398265,135.326241 C103.335593,133.931508 99.9929767,133.161282 96.7840651,132.082965 C88.4275244,129.281008 80.9818467,125.125951 75.4707081,118.010729 C74.1002355,116.237127 72.5918799,114.484343 70.8370063,113.110426 C63.5626377,107.414918 58.9957882,99.5919197 54.032003,92.1103194 C50.6517823,87.0143379 48.9762959,81.2896854 49.2687749,75.0529368 C49.5696103,68.4623005 51.3913362,62.3088196 55.9080464,57.5126017 C65.9358952,46.8543397 76.2311533,36.3792665 87.9052406,27.4946059 C95.9985503,21.3327982 105.20328,16.9154482 114.842549,13.5264539 C122.292406,10.9076857 129.733905,8.24728353 137.242257,5.80754074 C145.845315,3.00974696 154.619683,0.932218544 163.682351,0.232770099 C172.018001,-0.408390975 180.211589,0.253587017 188.263116,2.48516063 C192.31186,3.60511082 195.892637,5.49112359 198.95531,8.47210624 C205.410737,14.7588155 212.079257,20.8248654 218.488723,27.1573718 C221.405156,30.0384333 224.355015,33.019416 225.91351,36.9454867 C226.134958,37.4992167 225.909332,38.490102 225.508218,38.9522376 C225.102925,39.4185365 224.079249,39.8723454 223.577857,39.6766663 C219.044433,37.9030649 214.615467,35.8713337 210.056974,34.1601831 C207.997087,33.3816303 205.736642,33.0652132 203.538872,32.7529594 C202.970627,32.6696917 202.11826,33.2608922 201.700433,33.7854785 C201.270071,34.3308818 201.219932,35.1677219 200.973414,35.8713337 C199.398206,40.4468923 198.61687,41.1130337 194.823,40.5676304 C188.877322,39.7183002 182.852256,39.2353477 177.128025,37.2285968 C168.483184,34.1893267 159.963691,35.3134403 151.761746,38.5941866 C145.147544,41.2379352 138.629443,44.2647151 132.40382,47.7119967 C120.537532,54.2859794 109.469294,62.0673433 99.3160969,71.0769054 C96.2325334,73.8122485 93.320279,76.7557607 90.4748769,79.7409067 C87.9762712,82.359675 87.2952132,85.4364155 88.1350455,89.0835395 C89.4470224,94.7499046 92.7102515,98.4802963 98.2255684,100.104016 C102.554256,101.373848 106.933084,102.510452 111.357872,103.359782 C122.806333,105.566375 134.317468,107.469041 145.76175,109.704778 C159.453942,112.381834 172.828585,116.149696 185.685123,121.641199 C191.593197,124.16421 197.183723,127.224297 202.406561,130.942198 C206.091795,133.56513 209.505442,136.479498 212.254744,140.126622 C213.83413,142.220804 215.59736,144.181758 217.339699,146.142712 C221.743596,151.097138 223.999862,156.925875 224.735238,163.441571 C225.721309,172.159696 224.743594,180.661325 222.02354,188.967275 C220.506828,193.601121 218.927442,198.218314 217.247777,202.793872 C213.107111,214.055825 208.795136,225.25949 204.746392,236.55475 C201.504055,245.580966 195.926064,253.025096 189.570914,260.011253 C185.133591,264.886575 179.680949,267.842578 173.250591,269.43299 C164.133605,271.685381 155.075115,274.220881 146.062585,276.86463 C135.850893,279.853939 125.438643,281.032177 114.842549,281" id="Fill-1" fill="#231F20" mask="url(#mask-2)"></path>
                </g>
            </g>
        </g>
    </g>
</svg>