<?xml version="1.0" encoding="UTF-8"?>
<svg width="204px" height="254px" viewBox="0 0 204 254" version="1.1" xmlns="http://www.w3.org/2000/svg" xmlns:xlink="http://www.w3.org/1999/xlink">
    <title>Fill 15</title>
    <g id="Prototype" stroke="none" stroke-width="1" fill="none" fill-rule="evenodd">
        <g id="Desktop-HD-Copy-7" transform="translate(-394.000000, -2416.000000)" fill="#231F20">
            <g id="Group-17" transform="translate(19.000000, 2347.000000)">
                <path d="M486.846217,323 C481.50848,317.653689 475.819356,312.851563 468.293816,310.720516 C467.285669,310.438038 466.511781,309.387054 465.574749,308.763941 C463.796898,307.58418 462.165458,308.045284 460.337408,308.959183 C455.928337,311.16085 453.025211,310.737133 450.473471,307.376476 C447.955197,304.069822 445.315611,301.029029 441.755725,298.723511 C438.246038,296.447071 437.233708,292.774857 437.806804,288.849244 C438.404999,284.7907 439.371313,280.782005 440.304162,276.781619 C440.730846,274.966282 441.554933,273.250644 442.048548,271.451924 C443.131991,267.526311 446.386505,264.011953 445.453656,259.799708 C444.579371,255.840862 442.596544,252.122953 441.057134,248.313655 C436.978534,238.252454 432.812088,228.22864 428.804602,218.142515 C422.446169,202.145122 416.071003,186.156038 409.92173,170.075564 C403.241192,152.603471 396.815829,135.031679 390.277519,117.505583 C387.386942,109.749901 385.889364,101.657738 384.412701,93.5614204 C384.011116,91.3555997 383.785225,89.1082382 383.253961,86.9314962 C382.350394,83.2094335 380.706404,79.9069336 377.272014,77.7634243 C376.64872,77.3770941 376.138373,76.7996759 375.619658,76.2721068 C374.690992,75.3332829 374.837404,73.0360723 375.849733,72.2218711 C380.221156,68.7116669 386.048325,67.9348525 390.599624,70.560236 C392.15995,71.4658271 393.519483,72.9114497 394.628026,74.3695345 C398.472368,79.449984 401.852377,84.9084554 405.981175,89.7396596 C413.891567,98.9949673 419.471928,109.425882 423.989762,120.641919 C426.508036,126.893821 429.030493,133.124953 431.151365,139.51394 C437.049648,157.272666 443.031595,174.998158 450.067703,192.358091 C452.878799,199.295418 455.40544,206.340751 458.132873,213.311311 C458.94441,215.396663 459.923274,217.423858 460.923054,219.434436 C462.219839,222.055665 464.570786,222.437842 466.214776,220.327565 C467.36515,218.852864 468.486242,217.349084 469.544586,215.807917 C485.436485,192.619799 501.236354,169.373523 518.00672,146.791902 C520.458063,143.493556 522.670965,139.975044 524.595228,136.348525 C530.731952,124.771082 536.764097,113.131328 542.658197,101.429263 C545.691002,95.4141435 548.410068,89.2370149 549.397299,82.4741599 C549.506061,81.7513486 549.74032,80.9745342 550.154454,80.3888078 C551.480522,78.507006 553.132878,76.8578332 555.600954,76.8786036 C558.223807,76.9035281 560.846661,77.2815501 563.473698,77.5266413 C567.054499,77.8548142 569.928344,79.5829148 572.162161,82.2581473 C576.081801,86.9647289 578.537327,92.1905714 578.90963,98.5172472 C579.2652,104.594678 578.570792,110.310703 576.838956,116.163812 C573.400382,127.791104 567.748907,138.280176 561.50342,148.544927 C560.307031,150.513965 558.796903,151.926355 556.604917,152.935798 C555.006942,153.671071 553.672508,155.216392 552.54305,156.657861 C550.468193,159.308169 548.472816,162.049867 546.724247,164.924495 C541.65005,173.265904 535.755951,181.004969 529.698707,188.652645 C526.214118,193.051824 522.984704,197.662862 519.830586,202.307132 C516.258151,207.562053 513.078935,213.037141 508.548552,217.648178 C506.226887,220.020162 504.637279,223.123266 502.813412,225.960508 C498.969071,231.950703 495.254407,238.019825 491.380783,243.989249 C487.490426,249.983598 484.261012,256.314428 481.194741,262.740802 C479.542385,266.213619 478.810329,269.815213 479.768277,273.63282 C480.040184,274.721191 480.571447,275.81787 480.542165,276.897933 C480.32464,285.027483 483.386727,292.234825 486.637058,299.438014 C489.088401,304.871561 491.464447,310.350803 493.576952,316.058519 C490.406102,317.824007 487.716318,319.631035 486.66634,322.966767 L486.846217,323 Z" id="Fill-15"></path>
            </g>
        </g>
    </g>
</svg>