<?xml version="1.0" encoding="UTF-8"?>
<svg width="268px" height="21px" viewBox="0 0 268 21" version="1.1" xmlns="http://www.w3.org/2000/svg" xmlns:xlink="http://www.w3.org/1999/xlink">
    <title>Fill 11 Copy 3</title>
    <g id="Prototype" stroke="none" stroke-width="1" fill="none" fill-rule="evenodd">
        <g id="Desktop-HD-Copy-2" transform="translate(-598.000000, -1016.000000)" fill="#BBB332">
            <g id="Menu-Section" transform="translate(-100.431340, 763.245633)">
                <g id="Menu-Text-+-Buttons" transform="translate(691.431340, 169.754367)">
                    <path d="M255.214937,85.2564871 C252.303919,85.52792 248.770558,85.5995481 238.754302,85.59138 C231.73826,85.5850968 210.278619,85.6334772 191.063058,85.6988222 C151.133854,85.8326537 145.413175,85.8364236 138.038324,85.7283531 C135.109061,85.6856275 131.936537,85.7434327 130.985793,85.857158 C130.03505,85.9708834 124.2718,86.1072282 118.174067,86.1606351 C91.9870616,86.3912274 81.2430509,86.5979437 75.852801,86.9761904 C74.9263835,87.0409071 71.1375993,87.1219599 67.4299021,87.1571457 C63.724232,87.1923314 60.0955944,87.2784108 59.3718941,87.3494107 C57.3690483,87.5448172 43.6755026,87.9544798 40.2820169,87.921179 C38.6379806,87.9054711 34.7093216,88.0468424 31.5489607,88.2359658 C21.4597265,88.8397783 22.2523507,88.904495 17.4013285,87.0767211 C13.7321475,85.6937957 13.395637,85.6114861 11.3988727,85.6114861 C9.75078203,85.6114861 9.42440736,85.7214416 8.76963086,86.4967846 C8.35811498,86.9831019 7.8959198,87.6629408 7.74388192,88.0060018 C7.5006213,88.5551508 7.87159374,92.9552539 8.30743569,94.6693024 C8.39460407,95.0129917 8.83450036,95.5734504 9.28250533,95.9158831 C10.8697809,97.1228799 12.1489263,98.0044085 12.7570778,98.3129121 C13.0956155,98.4850709 13.6470063,98.8174505 13.9754081,99.0505561 C14.3058371,99.28429 15.0619722,99.6003334 15.6539064,99.7530144 C16.2458406,99.905067 16.7323618,100.155765 16.7323618,100.309075 C16.7323618,100.693605 26.5134659,102.902139 29.2562294,103.137129 C31.1070372,103.295465 32.2706339,103.223837 36.0371191,102.716785 C40.2799898,102.145017 43.5457636,101.821434 50.9935929,101.235214 C54.6323663,100.948701 55.8932672,100.892153 62.4167061,100.726906 C65.18785,100.655906 68.9644711,100.462384 70.8112247,100.296508 C72.6600054,100.130004 78.2529725,99.9477926 83.2398152,99.8906158 C88.228685,99.8340672 94.2737114,99.6945809 96.67591,99.5808555 C99.0781087,99.4683868 103.76493,99.3138209 107.089492,99.2384228 C110.414054,99.1630248 113.318991,99.0116004 113.537925,98.9010167 C113.762941,98.7916895 118.901822,98.6157608 124.959011,98.5102036 C131.020255,98.4046463 136.884863,98.2532219 137.991699,98.1734257 C139.102589,98.0942578 140.310784,98.0220013 140.679729,98.0138332 C141.048674,98.0056651 142.106858,97.8636655 143.031248,97.6977898 C144.300258,97.4697108 147.608602,97.3874013 156.56262,97.3603836 C163.082005,97.3409058 168.705379,97.2692777 169.060135,97.2007912 C169.970335,97.0267474 177.154632,96.8702965 189.972439,96.7471464 C196.023547,96.6880846 201.286085,96.5800141 201.669221,96.506501 C202.052356,96.4329879 205.569499,96.3469085 209.479914,96.3154927 C213.392355,96.2834485 219.315751,96.1590418 222.640313,96.0396615 C225.966902,95.919653 232.705221,95.7223615 237.617059,95.6010964 C242.528896,95.4798312 247.215717,95.3007609 248.03064,95.2033718 C248.845563,95.1053543 250.872735,94.9036646 252.537043,94.7534969 C258.028652,94.2615248 263.410793,92.8553516 262.938462,92.037283 C262.733718,91.6829122 263.400657,91.2883292 265.332552,90.621685 C267.061729,90.024784 268.158429,89.4165732 268.419935,88.9076365 C268.642923,88.4734696 269.244993,88.0104 269.757868,87.8790818 C270.268715,87.7471352 270.872812,87.2790392 271.099856,86.8379607 C271.328926,86.3968823 271.924915,85.9300428 272.42968,85.7999812 C272.934446,85.6705479 273.185816,85.4839378 272.991207,85.3859204 C272.794571,85.2879029 273.084457,84.9379304 273.63382,84.6086924 C274.183184,84.2794543 274.471042,83.8157565 274.268325,83.5782527 C273.939923,83.1880679 273.548679,83.158537 270.106542,83.2653509 C268.016527,83.3306958 266.135312,83.465784 265.920432,83.5656864 C265.709606,83.6655887 264.349374,83.7585796 262.899946,83.7717743 C259.745666,83.8006769 258.78276,83.9345084 260.021362,84.1726405 C261.416056,84.4396751 259.607819,84.8468245 255.214937,85.2564871" id="Fill-11-Copy-3"></path>
                </g>
            </g>
        </g>
    </g>
</svg>