<?xml version="1.0" encoding="UTF-8"?>
<svg width="199px" height="335px" viewBox="0 0 199 335" version="1.1" xmlns="http://www.w3.org/2000/svg" xmlns:xlink="http://www.w3.org/1999/xlink">
    <title>Fill 13</title>
    <g id="Prototype" stroke="none" stroke-width="1" fill="none" fill-rule="evenodd">
        <g id="Desktop-HD-Copy-7" transform="translate(-19.000000, -2347.000000)" fill="#231F20">
            <g id="Group-17" transform="translate(19.000000, 2347.000000)">
                <path d="M58.1036919,115.321677 C58.9500721,130.68571 59.7672667,146.049743 60.6886954,161.409602 C60.7970987,163.249781 61.4225028,165.060751 61.8686244,166.871721 C62.1563102,168.040088 64.4411198,169.133346 65.5626777,168.699381 C66.2589609,168.432326 67.0261232,168.265416 67.6348498,167.856487 C69.1941907,166.821648 70.7243459,165.740908 72.1919608,164.57254 C82.223442,156.598432 90.587179,146.942709 99.2010777,137.549869 C103.007704,133.402164 106.518305,128.99575 110.13731,124.689481 C112.151111,122.290155 113.064201,119.519455 112.955798,116.364863 C112.651434,107.310014 111.004537,98.467976 108.844808,89.7093925 C108.398687,87.8984229 107.777452,86.091626 106.981104,84.4058386 C102.644969,75.2466719 100.406023,73.9113948 90.4162353,74.4288147 C88.9236042,74.5080967 87.4142957,74.6124153 85.9383422,74.8460888 C78.9088005,75.9685561 71.8750894,77.082678 64.8663945,78.3219821 C62.4356574,78.7517744 60.9638732,80.5669168 60.2550819,82.7993333 C59.6963876,84.5644027 59.458734,86.4588272 59.2669435,88.3115242 C58.3538535,97.2870903 57.9744417,106.28352 58.1036919,115.321677 M66.0963558,225.089804 C66.3256707,231.002578 67.4722448,237.278381 68.793932,243.53332 C71.6749601,257.12811 74.530972,270.727073 77.3661371,284.330209 C77.6705004,285.790669 78.0082186,287.334583 77.8414442,288.778351 C77.6413149,290.593494 77.4370162,292.788355 76.3488132,294.056869 C68.4145202,303.316181 69.4902152,303.658346 69.4485216,315.709222 C69.4318442,320.666438 68.2018829,325.406672 66.7884697,330.059279 C66.2923158,331.69082 64.6120635,333.009407 63.3195618,334.32382 C62.4648429,335.195923 61.1598331,335.179232 60.2258964,334.532457 C56.0607053,331.661611 53.3464516,327.676643 51.9246997,322.857128 C51.2867876,320.69982 50.7906337,318.475749 50.5237946,316.247506 C49.4480996,307.296976 48.4391144,298.342274 47.496839,289.379226 C46.9464834,284.146609 46.5337167,278.905646 46.1334581,273.66051 C45.6164574,266.875633 43.9653907,260.424576 41.7514603,253.956827 C34.4342327,232.579874 29.4601857,210.656293 26.7667789,188.161046 C23.6772828,162.294224 23.9357831,136.419056 25.403398,110.502161 C25.6202048,106.75504 26.2456088,103.037128 26.5749883,99.2941788 C26.7626095,97.0534168 26.7834563,94.7959639 26.7959644,92.5426837 C26.8126418,90.0223481 25.5159707,88.2113785 23.2728548,87.2808572 C20.8546258,86.2710538 18.277961,85.6534882 15.8388852,84.6770668 C13.7625437,83.8425185 11.661186,82.932861 9.80998998,81.7019024 C8.28400407,80.692099 6.84140536,79.3359582 5.82825077,77.8212532 C3.9603773,75.0171712 2.34683481,72.0294885 0.791663366,69.0376332 C-0.917774412,65.7411677 0.224630347,61.1386343 3.41419108,58.9854999 C5.88245246,57.3122308 8.50914953,55.8058712 11.2275725,54.5790854 C15.6721108,52.5803424 20.2709153,50.9237642 24.7529778,49.008476 C26.5708189,48.2281734 27.9050143,46.6467046 28.0467725,44.7272437 C28.7680719,35.0423116 30.8694295,25.3448614 27.8925062,15.6599293 C27.2337472,13.5234859 26.9335533,11.2535147 26.6833917,9.01692552 C26.4248913,6.72609067 27.0502954,4.55209257 28.1801921,2.54083137 C29.3267662,0.508706461 33.2834892,-0.709733934 35.143024,0.450288086 C36.4105096,1.23893615 37.6571483,2.08600259 38.8120612,3.02486933 C40.8467091,4.6772748 42.5728243,6.88465483 44.8492951,8.01546766 C48.0972269,9.63031846 49.9317454,12.2716636 51.8996836,15.0256727 C53.709186,17.5626992 54.6306147,20.2541172 54.9433167,23.3461184 C55.4019463,27.8234696 56.1315844,32.2757843 56.9029161,36.7072353 C57.3115134,39.0606613 59.3211451,40.6504756 61.6684951,40.7047213 C64.6704346,40.7673124 67.6723741,40.7464487 70.678483,40.7214122 C81.6730864,40.6212664 92.321633,42.7910918 102.811744,45.8288473 C109.703697,47.8275903 116.13285,50.8987277 122.049173,55.0005322 C126.401985,58.0257695 130.358708,61.5266993 133.34814,65.8955592 C137.592549,72.0920797 141.678522,78.4054369 145.576874,84.81894 C148.753926,90.0348663 150.48838,95.7473488 150.263235,101.973079 C150.150662,105.031698 149.650339,107.919235 148.216079,110.656553 C144.734663,117.299557 141.249078,123.94256 137.926097,130.669019 C136.937959,132.655244 136.362587,134.875142 135.82057,137.040795 C134.91165,140.671079 134.036084,144.322228 133.398172,148.006758 C131.630363,158.225801 126.739703,167.076185 121.502987,175.780523 C119.956154,178.350931 118.209192,180.808676 116.624835,183.358221 C114.44009,186.880014 114.631881,189.170849 117.462876,192.546596 C119.155637,194.557858 120.923446,196.5107 122.774642,198.375916 C126.210195,201.843464 129.774998,205.181656 133.206381,208.65755 C142.958515,218.555292 152.794037,228.373751 162.35855,238.450921 C170.647238,247.192814 177.768506,256.865227 184.118442,267.13017 C187.237123,272.175014 189.355158,278.008506 194.750311,281.442672 C195.53832,281.939229 195.792651,283.349615 196.172063,284.384455 C197.076814,286.833854 197.894009,289.316635 198.769574,291.778552 C199.240712,293.101311 199.086446,293.885786 197.385347,294.190396 C194.020673,294.791271 194.325036,296.84426 194.871222,299.226895 C194.942101,299.552369 194.808682,300.207489 194.637738,300.261735 C193.97481,300.466199 193.015857,300.820882 192.594751,300.520445 C183.063593,293.798159 173.949372,286.700326 167.211685,276.877694 C154.194942,257.891722 138.272154,241.41774 121.949108,225.290096 C115.815979,219.227103 110.195681,212.642517 104.316883,206.312469 C102.790897,204.668409 101.235726,203.045213 99.6055057,201.497126 C98.2087699,200.166022 96.0823961,199.932348 94.4104826,201.109061 C87.9229577,205.67404 80.7266416,208.895396 73.6554063,212.367117 C72.3128723,213.02641 71.0078624,213.781676 69.765393,214.612051 C67.4305512,216.168484 66.1380495,218.355 66.0963558,221.209155 C66.0838478,222.335795 66.0963558,223.466608 66.0963558,225.089804" id="Fill-13"></path>
            </g>
        </g>
    </g>
</svg>