<?xml version="1.0" encoding="UTF-8"?>
<svg width="491px" height="360px" viewBox="0 0 491 360" version="1.1" xmlns="http://www.w3.org/2000/svg" xmlns:xlink="http://www.w3.org/1999/xlink">
    <title>Fill 7 Copy 5</title>
    <g id="Symbols" stroke="none" stroke-width="1" fill="none" fill-rule="evenodd">
        <path d="M319.838,347.365619 C320.026,347.297619 320.214,347.233619 320.398,347.169619 C320.318,346.985619 320.282,346.705619 320.15,346.645619 C320.018,346.589619 319.786,346.757619 319.602,346.825619 C319.682,347.005619 319.758,347.185619 319.838,347.365619 L319.838,347.365619 Z M470.162,150.756 C469.998,150.828 469.834,150.9 469.67,150.968 C469.894,151.06 470.11,151.152 470.33,151.244 C470.274,151.08 470.218,150.916 470.162,150.756 L470.162,150.756 Z M469.827252,156.382 C470.007252,156.31 470.291252,156.282 470.343252,156.158 C470.403252,156.03 470.239252,155.802 470.171252,155.618 C469.991252,155.694 469.727252,155.726 469.655252,155.858 C469.599252,155.974 469.763252,156.202 469.827252,156.382 L469.827252,156.382 Z M469.158,190.236 L469.218,189.764 L468.782,189.88 L469.158,190.236 Z M325.555433,347.914 C325.443433,347.742 325.331433,347.566 325.223433,347.394 C324.955433,347.63 324.671433,347.846 324.447433,348.114 C324.415433,348.158 324.659433,348.434 324.775433,348.606 C325.035433,348.378 325.295433,348.146 325.555433,347.914 L325.555433,347.914 Z M469.632,177.284426 C469.384,176.992426 469.152,176.680426 468.872,176.424426 C468.824,176.384426 468.54,176.608426 468.368,176.712426 C468.616,177.008426 468.848,177.320426 469.128,177.576426 C469.176,177.612426 469.456,177.388426 469.632,177.284426 L469.632,177.284426 Z M215.544,345.996822 C214.92,345.044822 214.696,344.336822 214.232,344.100822 C213.764,343.864822 213.06,344.100822 212.456,344.132822 C212.716,344.716822 212.832,345.484822 213.276,345.828822 C213.664,346.124822 214.424,345.940822 215.544,345.996822 L215.544,345.996822 Z M240.501115,326.965351 C240.961115,326.677351 241.317115,326.457351 241.673115,326.237351 C241.453115,325.893351 241.301115,325.349351 241.001115,325.249351 C240.389115,325.045351 239.685115,324.993351 239.041115,325.065351 C238.765115,325.093351 238.513115,325.581351 238.333115,325.909351 C238.285115,325.985351 238.525115,326.333351 238.689115,326.397351 C239.305115,326.629351 239.945115,326.797351 240.501115,326.965351 L240.501115,326.965351 Z M261.201683,324.831155 C261.857683,325.099155 262.097683,325.299155 262.273683,325.251155 C263.117683,325.031155 263.961683,324.791155 264.745683,324.427155 C264.857683,324.379155 264.789683,323.487155 264.553683,323.211155 C263.837683,322.383155 262.469683,322.691155 261.593683,323.815155 C261.461683,323.983155 261.425683,324.231155 261.201683,324.831155 L261.201683,324.831155 Z M287.566146,335 C287.382531,335.164302 287.191266,335.328603 287,335.492905 C288.040485,336.228529 288.985336,337.203137 290.136755,337.647498 C292.948358,338.73413 295.844119,339.630321 299,340 C298.720752,339.081404 298.292318,338.304705 297.664967,338.095594 C294.329296,336.986557 290.94007,336.019417 287.566146,335 L287.566146,335 Z M312,344.791771 C311.777485,343.225017 310.902261,342.450603 309.470749,342.321534 C307.553414,342.142271 305.617536,342.056225 303.689075,342.002447 C302.543124,341.966594 301.50843,342.317949 301.141281,343.508252 C300.800092,344.623264 301.044858,345.56977 302.227895,346 C305.472901,345.598452 308.628902,345.20766 312,344.791771 L312,344.791771 Z M457.472758,218.64 L457,218.428 C457.177703,218.472 457.348701,218.516 457.526404,218.56 C458.448449,219.768 459.22632,221.236 461,221.572 C460.537301,218.7 458.921207,218.832 457.472758,218.64 L457.472758,218.64 Z M307.518508,20.645172 C309.210171,20.7428853 310.296594,21.7914251 311.454444,22.9038544 C312.507034,23.9260868 313.867882,24.6326297 315.506915,25.7638501 C316.277562,23.929845 316.845209,22.5806486 317.48804,21.0548165 C319.559387,20.4196795 321.728475,20.2017035 323.841173,21.2727925 C324.619338,21.6674043 325.322318,22.2649592 325.953872,22.877547 C329.299605,26.1096051 333.38591,26.0682648 337.152679,24.5273999 C340.972077,22.967744 344.494495,23.1631707 348.204875,24.2229851 C350.98672,25.019725 353.69714,25.5721815 356.712059,25.3955458 C360.471309,25.1738115 364.189208,26.2674498 367.625162,28.0225325 C368.997289,28.7178008 370.388211,29.5483646 371.858078,29.8377466 C374.884275,30.4353015 378.162341,30.1985344 380.981779,31.2508324 C383.88392,32.3369543 386.823654,33.1412106 389.714518,34.1070699 C397.872091,36.8280118 406.330404,37.0986027 414.67594,38.2749215 C417.314934,38.646984 419.999038,38.6995989 422.656828,38.9476406 C427.758131,39.4211747 432.859434,39.9360491 437.956977,40.4283742 C439.825325,40.6087682 441.618487,41.2476634 442.4568,42.927582 C444.332666,46.7045801 447.794936,48.8242089 450.791058,51.4361629 C451.151946,51.6391061 451.501556,51.8645985 451.877482,52.0412342 C452.054166,52.1239148 452.275962,52.1088819 452.482721,52.1389476 C452.317314,51.9360044 452.18574,51.6127986 451.982741,51.5601837 C451.588019,51.4587121 451.155705,51.511327 450.742188,51.5000524 C452.418814,50.5905663 454.005217,49.3465997 455.79462,48.8580328 C457.847171,48.2980599 459.614019,49.1812386 460.26061,51.4887778 C459.854611,51.5601837 459.422297,51.5789747 459.050131,51.729303 C458.862169,51.8044672 458.771947,52.1201566 458.636614,52.326858 C458.832095,52.2780013 459.05765,52.2704848 459.219297,52.1690133 C459.565148,51.947279 459.877166,51.6766881 460.20798,51.4286465 C460.880886,51.9886193 461.489885,52.9319293 462.230457,53.0484337 C465.756634,53.5896155 468.940719,54.8448567 471.801508,56.9532109 C471.970675,57.0772317 472.218785,57.0922646 472.418025,57.1749451 C474.963038,58.2573088 477.835105,56.2692172 480.51921,58.7082936 C482.466502,60.4784092 485.710735,60.8504717 488.398599,61.763716 C489.218115,62.0380651 490.127854,62.0267905 491,62.1470532 L491,95.6251621 C488.364765,96.4782752 488.364765,96.4782752 486.624233,93.8738376 C486.195678,93.9039033 485.646827,93.7761242 485.364884,93.9941003 C483.718332,95.2794071 482.135688,96.6436363 480.534247,97.981558 C478.008031,97.1171704 476.417868,98.9624501 474.275095,100.315405 C473.376634,99.1353276 472.508247,97.9928326 471.369195,96.5008244 C465.32432,97.0495226 458.892243,96.7263168 453.505237,100.99564 C453.366145,100.875377 453.23833,100.728807 453.076682,100.642369 C452.960146,100.578479 452.802257,100.585996 452.663165,100.563446 C452.963905,100.683709 453.264645,100.80773 453.565385,100.927992 C456.19686,103.566254 458.832095,106.200757 461.640255,109.011896 C462.779308,109.211081 463.031177,108.177574 463.632657,107.192924 C464.933358,105.073295 466.767872,104.91545 467.591148,106.892267 C468.854256,109.940173 471.117325,111.281853 474.090892,111.924506 C475.609629,112.25147 477.135885,112.578434 478.632066,112.999354 C481.282338,113.743479 481.898855,116.02471 479.887656,117.997769 C478.173438,119.685204 476.263739,121.169696 474.342762,122.827065 C472.147359,121.466594 474.511928,119.298109 472.906728,117.753486 C470.594789,118.159372 468.809145,119.692721 467.109964,121.35009 C468.726442,124.491951 468.726442,124.491951 468.508405,126.844589 C470.060975,127.829239 471.771434,128.828922 473.395431,129.952626 C475.139723,131.15901 475.763758,132.733699 474.827705,134.548913 C473.688652,136.758739 472.331563,138.76938 473.876615,141.321202 C474.053299,141.618101 473.959318,142.294578 473.726245,142.58396 C471.933082,144.835126 472.936802,147.217829 473.218746,149.611807 C474.154799,157.496526 473.902929,158.488693 469.78655,165.26474 C471.04214,167.053647 472.297729,168.85007 473.553319,170.642734 L473.59843,170.59012 C472.64734,172.22494 472.485692,173.773321 473.39919,175.607326 C475.425426,179.677464 476.034424,183.905447 473.966837,188.219869 C473.688652,188.794875 473.624745,189.478868 473.511967,190.121522 C472.448099,196.198543 472.451859,196.198543 466.903205,198.960825 C467.970832,200.122111 468.98583,201.223266 470.260216,202.610044 C467.997147,204.943891 465.730319,207.277737 463.230418,209.855867 C464.076249,211.858992 464.997265,213.978621 465.854374,216.120799 C466.162633,216.883715 466.771631,218.10889 466.474651,218.443371 C464.252934,220.946337 467.455815,221.164313 468.13248,222.656321 C467.170112,224.907487 466.143837,227.305223 465.031099,229.924693 C466.391947,230.973233 467.58363,231.893994 469.1362,233.092862 C467.467093,233.99859 465.97467,234.802846 464.057453,235.840111 C466.200225,238.647492 468.151276,241.203073 470.102327,243.758654 C469.038459,244.172057 468.072332,244.544119 467.008464,244.953764 C467.594907,246.167665 468.053536,247.118491 468.508405,248.058043 C467.568593,249.414756 466.553595,248.636807 465.561153,248.29481 C465.433338,248.167031 465.320561,248.012944 465.170191,247.922747 C465.061173,247.858858 464.899525,247.877649 464.764192,247.8551 C465.046136,247.982879 465.331839,248.1069 465.613782,248.234679 C466.485928,252.624264 464.17023,256.299791 462.877048,260.193294 C462.606382,261.008825 461.820699,261.662753 461.591384,262.482042 C460.80946,265.218017 458.847132,266.30038 456.290841,266.281589 C455.471325,268.171967 454.775864,269.765447 453.956347,271.652067 C452.373703,271.467915 450.900076,271.291279 449.422691,271.118402 C449.309914,270.922975 449.193377,270.731306 449.07684,270.539638 C449.215932,270.712515 449.358784,270.881635 449.497876,271.054512 C450.306115,273.670224 452.922553,274.414349 454.700679,276.011587 C456.84721,277.943306 456.933673,277.845592 458.335874,281.404615 C461.869569,282.193838 465.903245,281.040068 469.493329,283.922613 C468.745238,284.865923 467.997147,285.809233 467.245297,286.745027 C467.203945,290.552091 471.778953,289.98836 472.918006,292.908487 C471.696249,294.212584 469.380551,293.866829 468.33172,295.975184 C467.662574,297.328138 465.583708,297.985824 463.67025,299.263615 L463.67025,295.884987 C462.226698,294.874029 460.884645,294.776315 460.038814,296.155577 C458.40354,298.835179 456.606618,301.251706 453.809736,302.890285 C452.13687,303.874935 451.561704,305.566128 452.151907,307.535429 C452.400017,308.358476 452.572943,309.207831 452.907516,310.545753 C451.621852,311.312427 450.287319,312.112925 449.321191,312.691689 C449.749746,313.976996 449.757264,314.567034 450.039208,314.769977 C452.922553,316.848266 455.817176,318.888972 457.756949,322.43672 C456.279564,324.932169 454.546549,326.976634 451.103076,326.427936 C449.189617,326.123521 447.637047,326.841339 446.212291,328.040207 C444.073278,329.840388 441.964338,330.028298 439.558418,328.307039 C438.355458,327.44641 436.716425,327.187094 434.990929,326.551957 C432.742897,331.084354 428.720499,333.170159 424.367287,334.861353 C423.705659,334.260039 423.059068,333.670001 422.408718,333.079962 C421.983923,333.14761 421.450109,333.072446 421.164406,333.305455 C418.619394,335.372469 415.487938,336.954674 414.837588,340.65275 C411.112171,343.396241 407.627346,346.756078 402.620024,346.782386 C400.454696,346.79366 398.725441,347.394973 397.165352,348.766719 L397.229259,348.691555 C397.030019,348.78551 396.834538,348.894498 396.62402,348.97342 C393.327157,350.23242 389.575425,350.890106 389.218296,355.272175 C386.146989,355.399954 383.710995,355.903554 381.940388,352.761693 C383.977901,352.438487 385.601898,352.179171 387.312357,351.904822 C387.026654,351.164455 386.910117,350.514285 386.748469,350.503011 C384.331271,350.322617 381.906555,350.228661 379.305153,350.108399 C378.000693,352.34829 376.703752,354.276251 373.70763,354.223636 C372.376855,354.201086 370.760377,355.279692 369.74162,356.316957 C367.756736,358.342631 365.260594,358.921395 362.474989,360 C361.704343,358.395246 361.061511,357.053566 360.418679,355.711886 C359.377367,353.550917 357.734575,352.156622 355.291062,351.946162 C348.43043,351.352365 341.573557,350.657097 334.701648,350.303826 C331.416063,350.134706 327.97259,350.119673 325.250892,352.686529 C324.81106,353.10369 324.014099,353.408105 323.420137,353.359248 C318.788741,352.968394 314.157345,355.174462 309.529707,353.329182 C308.924468,353.088657 308.202692,352.945845 307.563619,353.021009 C302.920945,353.550917 298.327141,352.968394 293.707023,352.686529 C292.056712,352.581299 290.316179,353.494543 288.65459,354.043242 C287.613278,354.385239 286.665947,355.009101 285.624634,355.351098 C279.203835,357.466968 279.218872,357.418112 273.486015,353.535884 C272.444703,352.829341 271.15152,352.457278 269.937283,352.040117 C268.290731,351.472628 266.602827,351.00661 264.93748,350.499252 C264.828461,347.199547 263.414983,344.895766 260.494046,343.151957 C259.298604,344.497396 258.061811,345.887932 256.652092,347.473896 C255.982945,346.632057 255.531835,346.188589 255.223577,345.666198 C252.945471,341.802761 251.577104,341.321711 247.889279,343.685623 C242.96842,346.835 237.619007,347.128141 231.649318,347.285985 C231.83728,345.320443 231.957576,344.114059 232.08915,342.723522 C229.923822,341.8892 227.871271,341.780212 225.829998,343.16699 C225.390166,346.560651 229.025361,347.113108 230.228321,349.841566 C225.36761,349.841566 220.762529,349.920489 216.164965,349.807742 C213.931971,349.751369 211.762883,349.47702 209.714092,350.773602 C209.011112,351.21707 208.003633,351.183246 207.139005,351.371156 C203.781995,352.100249 200.44378,350.675888 197.248418,350.984061 C194.199666,351.277201 191.27121,352.310708 188.102161,351.570341 C186.425536,351.179488 184.824095,351.536518 183.027173,352.149105 C180.312995,353.069866 177.098836,353.738827 174.309472,351.622956 C172.200532,350.025718 169.858519,349.631107 167.362377,350.548109 C165.354938,351.288476 163.43772,350.773602 161.456595,350.386506 C159.92658,350.08585 158.358973,350.0633 157.336457,351.750735 C157.062031,352.20172 155.986886,352.712836 155.689905,352.528684 C151.90434,350.153497 147.536091,353.148788 143.641507,351.047951 C141.085217,349.668689 138.284576,349.360516 135.314768,350.799909 C132.521645,352.149105 130.23978,350.055784 127.976711,348.672764 L128.044378,348.736653 C126.285049,345.748879 123.924239,343.772062 120.439414,342.712247 C115.770425,341.299161 111.195418,339.435091 106.797095,337.322978 C103.056641,335.526555 98.8462802,334.429159 96.2523974,330.576996 C95.3652143,329.254108 93.2901081,328.731717 91.7600932,327.84478 C88.2903052,325.834139 86.0460327,323.004209 85.4783859,318.91528 C85.2979419,317.637489 84.7791653,316.389765 84.2867035,315.175864 C83.0762249,312.180573 80.5838419,309.929407 80.1816021,306.344077 C79.8207141,303.104502 78.0012369,300.052838 78.0538664,296.621595 C78.0613849,295.963909 77.9899592,295.2273 77.6967376,294.656053 C74.159283,287.695853 77.9448482,282.385507 81.3432105,277.176632 C80.2643056,273.087702 78.963605,269.100244 78.2643844,265.015073 C77.9974777,263.477967 79.129012,261.704093 79.7718438,259.546882 C77.5952379,259.189852 75.764483,258.851614 73.918691,258.60733 C72.1706396,258.370563 70.3887549,257.983468 68.648222,258.088698 C59.0771706,258.656187 49.5361932,258.10373 39.9764195,257.87448 C34.9014315,257.754217 29.848999,257.089015 24.7025853,257.261892 C19.2516723,257.442286 14.5074983,254.123789 11.1053768,249.749236 C9.19191832,247.280094 7.4664224,244.825985 4.87629891,242.913057 C3.39891351,241.819419 2.31624941,239.816295 1.70725085,238.001081 C-0.0144858129,232.856095 -0.499429109,227.493133 0.553160992,222.148963 C1.33508507,218.184054 1.80123211,214.298068 1.30501106,210.22793 C0.985474783,207.615976 1.39147382,204.891276 1.6734176,202.234223 C2.65458194,192.928903 3.01171073,183.473254 4.99659492,174.374634 C6.50781356,167.433226 7.00403461,160.822539 5.19583519,153.313641 C4.01167132,152.468045 2.26361991,151.227836 0.0193474403,149.634357 C1.2110298,148.732387 1.92904662,147.811626 2.82374821,147.574859 C6.74088708,146.556385 10.4136747,145.090684 13.812037,142.839518 C16.2405127,141.231006 18.9697285,140.114818 21.9244993,139.96449 C25.7702124,139.765305 28.6460389,137.743389 31.1346627,135.157743 C32.7624181,133.462791 34.4991917,132.763765 36.8186492,132.237616 C41.7545449,131.121428 46.8370514,130.463742 51.5135589,128.171236 C53.1488328,127.370738 55.4081422,127.539857 57.3366377,127.727767 C59.0658928,127.893128 60.795148,128.554573 62.4229034,129.246083 C63.8100668,129.836122 65.0506194,130.779432 66.3287645,131.549864 C69.4113498,128.09983 69.5166089,127.919436 72.9600822,129.851154 C75.2945767,131.15901 77.4185531,131.448392 79.9522879,130.685476 C82.7190961,129.851154 85.6212374,129.471575 88.4143604,128.719934 C91.2112427,127.968293 91.8991855,126.589031 91.2413167,123.729035 C89.7940053,117.437796 88.1925646,111.176623 86.9783268,104.844044 C86.0535512,100.037297 85.6625891,95.1290788 84.9633686,90.2772334 C84.234074,85.2111702 83.5010202,80.145107 82.6213556,75.1015931 C81.5725248,69.0659125 81.5838025,63.1730437 84.143852,57.4117122 C86.440754,56.0061427 88.933137,56.1639874 91.3352979,56.2316351 C94.248717,56.3143157 96.680952,55.7130026 97.9403008,52.8041503 C99.2259644,49.8389248 101.567977,49.1849968 104.51523,49.4931698 C106.030208,49.6510145 107.582778,49.5232354 108.996256,49.5232354 C110.514993,44.0099456 110.514993,44.0099456 107.094075,40.2479803 C107.966222,38.6357094 108.890997,36.9144506 109.82705,35.2007081 C111.439769,32.2542737 113.048728,29.3604543 111.977342,25.7337844 C111.695398,24.7791998 112.120193,23.5352332 112.451007,22.4979681 C113.477283,19.3185248 114.481002,16.1202906 115.777944,13.0535936 C116.244091,11.9599553 117.424495,10.5957261 118.465808,10.4078158 C131.600629,8.05893632 144.348247,3.59418627 157.825159,3.12065217 C157.975529,3.11313576 158.137177,3.37996846 158.430398,3.64304296 C158.009362,4.09026961 157.588326,4.53749625 156.941735,5.22148995 C158.377769,6.06708655 159.764932,7.08556068 161.313743,7.68687382 C161.900186,7.91612445 163.223443,7.40125008 163.527942,6.84503542 C163.794849,6.36398491 163.08811,5.3530272 162.813684,4.57507832 L162.757296,4.60138577 C163.700867,4.12785168 164.644439,3.65807579 165.588011,3.18454169 L165.516585,3.25970583 C166.59549,3.3987595 167.670636,3.53405495 168.963818,3.70317427 C169.181854,2.90643436 169.362298,2.35397792 169.493872,1.79024685 C169.802131,0.444808703 170.723147,-0.340656584 171.527627,0.144152134 C172.271958,0.591378781 172.96366,1.13256061 173.632807,1.68877526 C174.644045,2.53437186 175.531228,3.5603624 176.62517,4.27066355 C179.854366,6.36774312 179.88444,6.32264463 183.083562,11.2684452 C180.328032,11.6931226 179.33183,9.01352093 176.846966,8.13034226 C175.636487,8.28442875 173.941065,8.50240476 171.734385,8.7842703 C172.636605,10.5318366 173.407252,12.0200866 174.365861,13.8653663 C176.786818,14.2148796 179.38446,14.5907003 182.564786,15.0492016 C182.737711,15.5866252 183.136192,16.544968 183.34671,17.5446511 C183.711357,19.2809428 184.891762,20.1866707 186.40298,20.772951 C190.342675,22.2912667 194.267332,23.858439 198.252137,25.2489757 C200.417466,26.0043753 202.782034,26.0043753 204.744363,24.8167819 C207.834467,22.9451947 211.044866,22.8249321 214.409395,23.403696 C216.450668,23.7532092 218.262627,22.9639857 220.198641,22.5919232 C227.547975,21.1788374 234.728144,18.341391 242.442125,19.4275129 C244.408213,19.7056202 246.238968,19.7319276 248.272723,18.9427041 C253.813858,16.7930097 259.103123,17.706254 263.93,21.2464851 C264.422462,21.6110312 265.178072,21.6335804 265.817144,21.7688759 C266.020144,21.8102162 266.256976,21.7087446 266.850938,21.6110312 C267.012586,20.2994169 267.189271,18.8750564 267.354678,17.5183436 C270.380874,16.4773203 273.219108,15.1393985 276.203953,14.5643928 C279.666222,13.895432 283.252547,13.8766409 286.786243,13.6248411 C287.196001,13.5947754 287.733574,13.7601365 288.026795,14.0307274 C291.940175,17.7325614 296.936219,17.6423645 301.800689,18.0482508 C304.037443,18.2361612 306.304271,18.3940059 307.563619,20.7090615 C306.326826,20.90073 304.890792,19.2621517 303.526185,21.6373386 C305.131384,21.2389687 306.326826,20.9420703 307.518508,20.645172 L307.518508,20.645172 Z" id="Fill-7-Copy-5" fill="#FDB713"></path>
    </g>
</svg>