<?xml version="1.0" encoding="UTF-8"?>
<svg width="1440px" height="64px" viewBox="0 0 1440 64" version="1.1" xmlns="http://www.w3.org/2000/svg" xmlns:xlink="http://www.w3.org/1999/xlink">
    <title>Fill 147 Copy</title>
    <g id="Prototype" stroke="none" stroke-width="1" fill="none" fill-rule="evenodd">
        <g id="Desktop-HD-Copy-7" transform="translate(0.000000, -3546.000000)" fill="#FBB042">
            <path d="M1424.79936,3559.93659 C1419.93788,3560.12342 1413.52348,3559.88338 1410.57577,3559.40093 C1402.11379,3558.01863 1409.74052,3557.49125 1422.27334,3558.59331 C1433.41948,3559.57002 1433.47219,3559.5984 1424.79936,3559.93659 M1382.46608,3587.6286 C1379.32112,3587.8316 1374.95604,3587.8166 1372.77752,3587.5956 C1370.59498,3587.3756 1373.16813,3587.2126 1378.48354,3587.2296 C1383.79896,3587.2456 1385.58284,3587.4256 1382.46608,3587.6286 M1306.83318,3589 C1305.1331,3589 1302.95381,3588.55112 1301.99157,3588 C1301.02173,3587.44971 1300.70986,3587 1301.29557,3587 C1301.86606,3587 1304.05677,3587.44971 1306.14098,3588 C1308.33168,3588.57855 1308.61693,3589 1306.83318,3589 M1107.25328,3558.04767 C1102.67273,3558.10653 1094.92134,3558.66859 1090.017,3559.29834 C1083.54895,3560.13016 1080.00692,3560.21353 1077.01377,3559.59556 C1072.39769,3558.64309 1071.69481,3557.63863 1075.26053,3557.09912 C1076.57546,3556.9 1086.17881,3557.01084 1096.61535,3557.34239 C1107.05584,3557.67394 1111.84962,3557.99274 1107.25328,3558.04767 M1050.43554,3559.72865 C1041.19871,3560.186 1036.15483,3560.07569 1031.18495,3559.31793 C1026.26028,3558.56555 1025.75055,3558.26244 1029.29401,3558.20505 C1036.87421,3558.07412 1040.29024,3557.89028 1046.49745,3557.26883 C1049.66272,3556.95227 1056.18236,3556.90922 1060.95492,3557.17198 C1072.05392,3557.78088 1067.47867,3558.89555 1050.43554,3559.72865 M1017.17527,3561.37989 C1015.23022,3561.97257 1012.14103,3562.17715 1010.31421,3561.83229 C1008.49883,3561.48393 1007,3560.83046 1007,3560.37572 C1007,3559.01967 1011.57277,3558.57077 1016.29046,3559.46156 C1019.62374,3560.09282 1019.83731,3560.56042 1017.17527,3561.37989 M933.312952,3553.06448 C927.564227,3553.55178 922.855251,3554.23032 922.855251,3554.56527 C922.855251,3555.06985 889.85629,3555.1617 875.424262,3554.70033 C866.166889,3554.40212 872.421437,3552.98128 885.083082,3552.51235 C900.253773,3551.94294 901.056667,3551.93538 926.074858,3552.07584 C943.015931,3552.16768 943.321031,3552.2109 933.312952,3553.06448 M829.895093,3561.99969 C823.843449,3562.01552 824.908015,3561.42343 832.638395,3560.48316 C836.405318,3560.0242 840.417909,3559.86594 841.56027,3560.12288 C843.984202,3560.6768 835.868941,3561.98014 829.895093,3561.99969 M794.5,3555.94698 C786.552419,3556.119 784,3555.89024 784,3554.99862 C784,3554.1106 786.552419,3553.88094 794.5,3554.05296 C800.278226,3554.17634 805,3554.60144 805,3554.99862 C805,3555.39849 800.278226,3555.82359 794.5,3555.94698 M757.078808,3556 C747.134556,3556 739.005333,3555.59033 739.005333,3555.09738 C739.005333,3554.03382 738.16856,3554.08447 757.458792,3554.00231 C766.198414,3553.96517 773.211942,3554.37934 773.919358,3554.96908 C774.748045,3555.66011 769.193817,3556 757.078808,3556 M642.87881,3556.13474 C615.540426,3556.22916 588.649881,3556.54648 583.106354,3556.84045 C570.776646,3557.4936 569.263674,3556.00041 581.145543,3554.91118 C590.271786,3554.07211 691.592453,3553.62337 694.840299,3554.40501 C699.887571,3555.6276 689.50657,3555.97218 642.87881,3556.13474 M674.014198,3563.39953 C671.995827,3563.39953 668.024456,3563.61514 665.168502,3563.87998 C662.316633,3564.14481 660,3563.95677 660,3563.45958 C660,3562.13638 669.671023,3561.47477 673.952912,3562.5036 C676.661779,3563.15733 676.682208,3563.39953 674.014198,3563.39953 M553.655698,3563.48218 C539.17757,3563.44081 509.69616,3564.96968 506.092787,3565.94973 C499.83536,3567.63324 490.55627,3567.21508 490.55627,3565.25063 C490.55627,3564.28909 488.459689,3563.50505 485.898547,3563.50505 C479.600723,3563.50505 476.599258,3562.0328 481.289299,3561.25312 C483.39396,3560.90139 486.981174,3561.32717 489.38477,3562.20921 C493.295157,3563.65424 494.208119,3563.67819 499.415236,3562.44878 C505.854448,3560.91881 542.958689,3560.45165 552.148906,3561.77581 C555.178648,3562.21465 558.616396,3562.31593 559.775777,3562.00231 C563.035779,3561.12462 606.672144,3560.88832 608.635417,3561.73879 C611.697476,3563.08363 595.651962,3563.58781 553.655698,3563.48218 M542.010404,3555 C544.740325,3555 547,3555.45234 547,3555.99938 C547,3556.54642 544.740325,3557 542.010404,3557 C539.259675,3557 537,3556.54642 537,3555.99938 C537,3555.45234 539.259675,3555 542.010404,3555 M469.212576,3562.99815 C467.099481,3563.54742 463.462188,3564 461.129701,3564 C455.31388,3564 455.748816,3562.90064 461.753237,3562.40055 C470.259501,3561.69625 473.273258,3561.9363 469.212576,3562.99815 M446.593973,3556.19097 C442.425129,3557.07708 439.157997,3557.21129 433.898711,3556.7109 C424.822878,3555.85412 428.840738,3555 441.967982,3555 C451.542902,3555 451.853258,3555.07999 446.593973,3556.19097 M439.134592,3563.80657 C433.152337,3564.2523 432.11434,3563.8733 437.524636,3563.22324 C439.503187,3562.98266 441.875752,3562.92746 442.75699,3563.10213 C443.646703,3563.2735 442.015564,3563.5907 439.134592,3563.80657 M415.396247,3557.86817 C412.960045,3558.22143 408.790005,3558.35738 406.137074,3558.17427 C403.488156,3557.98839 399.145536,3558.16965 396.496618,3558.57562 C392.286443,3559.21556 392.402835,3559.41162 397.311361,3560.07283 C411.519194,3562.0093 399.591035,3562.67051 377.203664,3561.1992 C374.554746,3561.02257 371.841612,3560.85241 371.179383,3560.82189 C370.537221,3560.79415 371.785423,3560.26518 373.992855,3559.65576 C377.468556,3558.68937 375.614314,3558.5451 359.913454,3558.5451 C348.555214,3558.5451 341.848635,3558.85768 341.848635,3559.38572 C341.848635,3559.9896 335.691908,3560.06636 320.143561,3559.64743 C300.730203,3559.13049 281.160317,3559.07962 263.424607,3559.50964 C260.06931,3559.58825 256.774217,3559.2877 256.071852,3558.83918 C253.988839,3557.48347 297.407014,3556.30531 358.845859,3556.05469 C413.092491,3555.83182 426.505648,3556.26184 415.396247,3557.86817 M314.604916,3564.00189 C311.909901,3564.54267 305.767868,3564.99227 300.955051,3564.99987 C296.134104,3565.00874 291.280637,3564.55787 290.179055,3564.00189 C288.939267,3563.37752 294.207351,3562.99251 303.820791,3563.00011 C315.13335,3563.01531 318.129167,3563.29013 314.604916,3564.00189 M240.115731,3558.97824 C230.156658,3558.77821 226.010229,3558.04645 234.830467,3558.04645 C238.472445,3558.04645 242.458368,3558.02608 243.681277,3558.00135 C244.896544,3557.97953 246.360215,3558.22466 246.933454,3558.54908 C247.495228,3558.87277 244.437953,3559.06771 240.115731,3558.97824 M1531.75803,3568.39611 C1522.72706,3568.39611 1520.82284,3566.94934 1528.44775,3565.89448 C1532.08746,3565.38895 1534.18049,3564.60093 1533.08376,3564.14439 C1531.99907,3563.68784 1532.48517,3562.86543 1534.1604,3562.30882 C1539.43517,3560.56915 1537.35017,3558.34582 1527.99781,3555.74934 C1521.40937,3553.9169 1517.19116,3553.38843 1512.39848,3553.7814 C1504.95837,3554.39742 1483.39329,3552.8068 1483.39329,3551.64876 C1483.39329,3551.22661 1478.68899,3550.31247 1472.94018,3549.60889 C1467.19538,3548.90218 1458.56614,3547.68993 1453.81363,3546.90505 C1443.46898,3545.20394 1438.33081,3546.04824 1445.87135,3548.21111 C1453.54045,3550.40837 1452.56424,3550.76485 1440.75728,3550.0915 C1426.82113,3549.29306 1371.59076,3549.67977 1340.94248,3550.78257 C1327.40003,3551.27352 1298.71623,3551.65606 1277.21544,3551.63834 C1244.89193,3551.60915 1237.10231,3551.84785 1232.11679,3553.01319 C1228.81856,3553.79078 1226.74159,3554.69449 1227.51694,3555.02179 C1229.30064,3555.76706 1372.12908,3555.40745 1390.36378,3554.60902 L1403.8982,3554.01488 L1401.88953,3556.61553 C1400.73655,3558.09879 1401.2347,3559.21201 1403.03447,3559.21201 C1404.74184,3559.21201 1406.16397,3559.77592 1406.16397,3560.46908 C1406.16397,3561.91064 1401.78106,3562.06283 1393.47722,3560.90999 C1389.0943,3560.30231 1386.25003,3560.50556 1381.92737,3561.74595 C1373.17359,3564.25592 1364.32741,3563.8911 1364.32741,3561.02048 C1364.32741,3558.03833 1350.68854,3555.97866 1342.52531,3557.72771 C1338.21069,3558.65332 1338.93381,3558.8524 1347.84427,3559.21201 C1360.94883,3559.74465 1362.3549,3561.0382 1350.19441,3561.37175 C1345.09641,3561.51455 1335.28607,3562.21084 1328.42044,3562.92901 C1311.37085,3564.69787 1309.551,3564.51859 1320.65894,3562.16393 C1328.59318,3560.48055 1329.42879,3559.95937 1325.97789,3558.87638 C1322.46674,3557.78296 1320.34558,3557.74752 1311.71232,3558.65957 C1300.63652,3559.82595 1273.19408,3559.74986 1254.01129,3558.50322 C1238.58471,3557.49423 1216.48934,3558.19781 1208.5792,3559.94999 C1205.15643,3560.70986 1201.96265,3560.93397 1201.29577,3560.46908 C1197.14586,3557.55885 1194.39398,3557.20133 1185.13803,3558.35521 C1173.16235,3559.8541 1125.60509,3560.31064 1122.28677,3558.95768 C1118.32567,3557.33683 1119.38223,3556.59156 1125.39619,3556.79273 C1134.17809,3557.0898 1161.46787,3555.76185 1163.43235,3554.94048 C1165.71822,3553.99091 1179.99986,3553.9857 1182.26564,3554.94048 C1187.41586,3557.10022 1219.5144,3555.98908 1219.5144,3553.65423 C1219.5144,3552.73384 1160.33097,3552.69215 1052.18823,3553.52811 C1031.47483,3553.6855 968.607494,3552.84329 966.835848,3552.38153 C964.626311,3551.80824 993.944849,3550.64185 1014.96758,3550.46987 C1032.31043,3550.32394 1038.34046,3548.75 1024.91853,3547.87651 C1020.28654,3547.57632 993.044966,3547.7285 964.35715,3548.21111 C885.934681,3549.53905 832.074221,3549.98518 685.31682,3550.52407 C497.21297,3551.21514 482.573788,3551.48407 482.573788,3554.22335 C482.573788,3555.99117 461.237702,3557.35351 455.778138,3555.93697 C453.327562,3555.30009 456.248167,3555.04159 465.849607,3555.04159 C480.448615,3555.04159 481.862719,3554.57045 474.748012,3552.07091 C471.216771,3550.82427 469.260327,3550.67625 466.303566,3551.43195 C463.961457,3552.03443 459.795477,3552.16264 455.62548,3551.76654 C445.967797,3550.84615 289.580836,3551.32563 260.543512,3552.36172 C247.266207,3552.83599 211.781055,3553.2425 181.70324,3553.26961 C151.613373,3553.28941 122.491684,3553.6584 117.004,3554.08472 C104.73103,3555.0343 89.2080332,3554.39742 92.1848812,3553.06739 C93.3619614,3552.54622 91.2649106,3552.80993 87.5408376,3553.6584 C80.5868243,3555.23755 67.4541441,3554.94778 67.4541441,3553.20811 C67.4541441,3552.61918 61.7816618,3552.53058 50.5572175,3552.93189 C41.2610957,3553.26544 21.065934,3553.59482 5.66345738,3553.66257 C-24.9848196,3553.80329 -31.9066942,3554.61736 -26.1618999,3557.40563 C-21.2205733,3559.79677 -21.750862,3560.23768 -28.8454821,3559.65188 C-32.7985434,3559.3298 -36.1007959,3559.63729 -37.976893,3560.49827 L-37.976893,3560.49305 C-41.3594922,3562.07116 -36.0887438,3568.02295 -26.0855704,3573.89135 C-19.1998519,3577.92835 2.0237485,3584.67962 7.83683762,3584.67962 C9.64464004,3584.67962 13.2120368,3585.89708 15.7268908,3587.38138 C20.6842868,3590.2989 28.526132,3591.36939 42.5145054,3591.02958 C52.0355981,3590.80131 53.7791231,3591.63519 47.3513812,3593.35089 C44.1053715,3594.21603 46.0577981,3595.06033 57.4027626,3597.69017 C68.6553283,3600.30333 74.0144582,3600.96 83.9533542,3600.96 C90.818986,3600.96 96.4151388,3601.32899 96.4151388,3601.77512 C96.4151388,3602.21916 100.802073,3603.17915 106.181289,3603.89525 C111.536402,3604.61863 115.115851,3605.54632 114.127585,3605.96221 C113.143337,3606.38332 117.807467,3606.95557 124.484284,3607.23909 C131.169136,3607.52677 139.54127,3608.08756 143.080545,3608.48156 C160.897442,3610.48391 206.91204,3611.02905 355.465191,3610.99882 C490.463841,3610.97172 548.972362,3610.50996 569.038969,3609.32378 C580.476332,3608.64313 588.63153,3608.56286 593.183174,3609.08925 C603.535856,3610.29107 719.19102,3610.80703 723.590006,3609.67817 C724.285006,3609.49576 723.079804,3608.79635 720.906424,3608.11257 C714.430474,3606.09459 720.119026,3604.84274 728.949136,3606.34267 C738.518437,3607.9729 763.691081,3608.02918 773.12781,3606.44169 C777.623212,3605.68704 797.328258,3604.89485 826.385669,3604.30384 C851.75918,3603.78684 876.076132,3602.9415 880.434944,3602.42971 C886.352484,3601.72821 891.020632,3601.73968 898.814269,3602.4714 C910.404291,3603.55648 927.032056,3602.72469 936.046964,3600.6129 C939.875488,3599.71023 952.863544,3599.24847 983.857312,3598.89824 C1007.23822,3598.63245 1030.37809,3598.01225 1035.25514,3597.5161 C1040.14826,3597.01577 1052.81493,3596.27987 1063.43677,3595.87857 C1074.0546,3595.47623 1085.64462,3594.97069 1089.1839,3594.75701 C1092.71916,3594.54124 1107.2097,3593.95857 1121.37483,3593.45616 C1136.58849,3592.91727 1148.57222,3592.049 1150.6773,3591.3277 C1152.65383,3590.65643 1155.90386,3590.10919 1157.92056,3590.10919 C1159.93325,3590.10919 1161.59241,3589.70164 1161.59241,3589.20965 C1161.59241,3588.35284 1185.58396,3588.26737 1191.69835,3589.10333 C1196.17768,3589.71832 1186.44769,3590.91493 1176.87838,3590.92639 C1164.63755,3590.94828 1165.74634,3592.31897 1178.48934,3592.91727 C1189.42453,3593.43115 1200.01826,3593.24874 1245.25751,3591.76756 C1260.29842,3591.27558 1282.83168,3591.02958 1295.32962,3591.21929 C1317.95527,3591.56952 1326.31937,3590.91493 1329.32434,3588.56444 C1331.25266,3587.04679 1350.66444,3584.90789 1350.52785,3586.2275 C1350.14219,3590.1561 1349.39898,3590.08314 1387.82482,3589.80483 C1407.82314,3589.65994 1427.00994,3589.13356 1430.46084,3588.63323 C1436.37838,3587.77226 1436.21769,3587.66802 1427.68888,3586.82998 C1413.84513,3585.46451 1420.71879,3584.1647 1441.04251,3584.31376 C1451.74068,3584.38881 1463.90518,3583.90724 1470.52576,3583.13487 C1476.71648,3582.41356 1480.41243,3581.81005 1478.72916,3581.7892 C1477.04992,3581.77356 1477.26685,3581.34308 1479.20321,3580.84379 C1481.13555,3580.3393 1489.813,3579.94008 1498.46233,3579.9578 C1518.31602,3579.99428 1525.78827,3579.00301 1515.91767,3577.63233 C1507.88701,3576.51598 1509.73498,3575.07858 1519.19983,3575.07858 C1524.2657,3575.07858 1525.20174,3574.70542 1523.55463,3573.34621 C1521.96778,3572.05266 1523.0605,3571.51064 1527.93353,3571.17917 C1536.77167,3570.58191 1539.76057,3568.39611 1531.75803,3568.39611" id="Fill-147-Copy" transform="translate(749.000000, 3578.500000) scale(1, -1) translate(-749.000000, -3578.500000) "></path>
        </g>
    </g>
</svg>